<svg enable-background="new 0 0 314.065 314.064" height="314.064" viewBox="0 0 314.065 314.064" width="314.065" xmlns="http://www.w3.org/2000/svg"><path fill="#8C4D50" d="m125.632 109.931c-8.666 0-15.701 7.027-15.701 15.701v62.793c0 8.668 7.035 15.701 15.701 15.701s15.701-7.033 15.701-15.701v-62.793c0-8.682-7.035-15.701-15.701-15.701zm167.37-31.402c-43.356-75.095-139.384-100.827-214.473-57.463-75.095 43.351-100.827 139.374-57.463 214.466 43.35 75.095 139.375 100.83 214.465 57.47 75.096-43.364 100.832-139.384 57.471-214.473zm-73.168 187.271c-60.067 34.692-136.894 14.106-171.576-45.973-34.69-60.067-14.097-136.894 45.972-171.568 60.071-34.69 136.894-14.106 171.578 45.971 34.685 60.075 14.098 136.885-45.974 171.57zm-31.402-155.869c-8.664 0-15.701 7.027-15.701 15.701v62.793c0 8.668 7.037 15.709 15.701 15.709 8.668 0 15.701-7.033 15.701-15.709v-62.793c0-8.682-7.033-15.701-15.701-15.701z"/></svg>