<svg enable-background="new 0 0 314.069 314.069" height="314.069" viewBox="0 0 314.069 314.069" width="314.069" xmlns="http://www.w3.org/2000/svg"><path fill="#8C4D50" d="m293.004 78.525c-43.356-75.089-139.384-100.82-214.473-57.464-75.095 43.35-100.827 139.382-57.463 214.481 43.35 75.087 139.375 100.822 214.465 57.467 75.096-43.361 100.832-139.388 57.471-214.484zm-73.168 187.277c-60.075 34.685-136.894 14.114-171.576-45.969-34.69-60.071-14.105-136.897 45.972-171.58 60.071-34.683 136.894-14.099 171.578 45.979 34.685 60.076 14.098 136.886-45.974 171.57zm-32.191-164.274c-6.136-6.133-16.078-6.133-22.205 0l-44.406 44.4c-6.129 6.131-6.129 16.078 0 22.213l44.406 44.402c6.127 6.128 16.069 6.128 22.205 0 6.132-6.131 6.123-16.077 0-22.201l-33.308-33.302 33.308-33.315c6.132-6.138 6.14-16.076 0-22.197z"/></svg>