<svg enable-background="new 0 0 314.065 314.064" height="314.064" viewBox="0 0 314.065 314.064" width="314.065" xmlns="http://www.w3.org/2000/svg"><path fill="#8C4D50" d="m235.533 21.057c-75.095-43.348-171.119-17.624-214.47 57.464-43.356 75.096-17.633 171.119 57.464 214.483 75.087 43.353 171.119 17.625 214.476-57.47 43.361-75.091 17.617-171.126-57.47-214.477zm30.268 198.773c-34.681 60.079-111.503 80.657-171.574 45.973-60.069-34.685-80.662-111.499-45.977-171.574 34.682-60.078 111.506-80.662 171.578-45.979 60.071 34.684 80.657 111.513 45.973 171.58zm-117.177-118.306c-6.131-6.133-16.08-6.133-22.201 0-6.129 6.121-6.129 16.068 0 22.197l33.304 33.312-33.304 33.302c-6.129 6.132-6.129 16.069 0 22.201 6.122 6.136 16.07 6.136 22.201 0l44.41-44.402c.766-.766 1.431-1.595 2.008-2.452 1.724-2.617 2.581-5.627 2.581-8.648 0-4.025-1.522-8.039-4.589-11.108z"/></svg>