<svg enable-background="new 0 0 483.083 483.083" viewBox="0 0 483.083 483.083" xmlns="http://www.w3.org/2000/svg"><path fill="#FFF" d="m332.74 315.35c30.883-33.433 50.15-78.2 50.15-127.5 0-103.417-84.15-187.85-187.85-187.85s-187.85 84.433-187.85 187.85 84.15 187.85 187.85 187.85c42.217 0 81.033-13.883 112.483-37.4l139.683 139.683c3.4 3.4 7.65 5.1 11.9 5.1s8.783-1.7 11.9-5.1c6.517-6.517 6.517-17.283 0-24.083zm-291.55-127.5c0-84.717 68.85-153.85 153.85-153.85 84.717 0 153.85 68.85 153.85 153.85s-68.85 153.85-153.85 153.85-153.85-69.133-153.85-153.85z"/></svg>