<svg enable-background="new 0 0 200 200" height="200" viewBox="0 0 200 200" width="200" xmlns="http://www.w3.org/2000/svg" xmlns:xlink="http://www.w3.org/1999/xlink"><linearGradient id="a" gradientUnits="userSpaceOnUse" x1="100.0005" x2="100.0005" y1="199.418" y2="1.5549"><stop offset="0" stop-color="#e09b3d"/><stop offset=".3" stop-color="#c74c4d"/><stop offset=".6" stop-color="#c21975"/><stop offset="1" stop-color="#7024c4"/></linearGradient><path d="m140.419 0h-80.838c-32.853 0-59.581 26.728-59.581 59.581v80.838c0 32.852 26.728 59.581 59.581 59.581h80.838c32.852 0 59.581-26.729 59.581-59.581v-80.838c0-32.853-26.729-59.581-59.581-59.581z" fill="url(#a)"/><path d="m75.006 100c0-13.807 11.19-25.002 24.997-25.002 13.807 0 25.003 11.195 25.003 25.002s-11.196 25.002-25.003 25.002c-13.807 0-24.997-11.195-24.997-25.002m-13.516 0c0 21.271 17.242 38.512 38.513 38.512 21.271 0 38.513-17.241 38.513-38.512 0-21.27-17.242-38.512-38.513-38.512-21.271 0-38.513 17.242-38.513 38.512m69.55-40.039c0 4.968 4.028 9.002 9.003 9.002 4.968 0 9.003-4.035 9.003-9.002 0-4.967-4.029-8.996-9.003-8.996-4.975 0-9.003 4.029-9.003 8.996m-61.341 101.087c-7.313-.333-11.287-1.551-13.928-2.581-3.502-1.362-5.998-2.986-8.627-5.609-2.623-2.623-4.253-5.119-5.61-8.621-1.03-2.641-2.248-6.615-2.581-13.928-.363-7.905-.436-10.28-.436-30.309s.079-22.397.436-30.309c.333-7.312 1.557-11.28 2.581-13.928 1.363-3.501 2.987-5.998 5.61-8.626 2.624-2.624 5.12-4.253 8.627-5.61 2.642-1.03 6.616-2.248 13.928-2.581 7.906-.363 10.281-.436 30.304-.436 20.029 0 22.397.079 30.31.436 7.313.333 11.281 1.557 13.929 2.581 3.502 1.357 5.998 2.986 8.627 5.61 2.624 2.623 4.247 5.125 5.61 8.626 1.03 2.642 2.248 6.616 2.581 13.928.363 7.912.437 10.281.437 30.309 0 20.022-.073 22.396-.437 30.309-.333 7.313-1.558 11.287-2.581 13.928-1.363 3.502-2.986 5.998-5.61 8.621-2.623 2.623-5.125 4.247-8.627 5.609-2.642 1.03-6.615 2.248-13.929 2.581-7.905.363-10.28.437-30.31.437-20.023-.001-22.398-.074-30.304-.437m-.618-135.593c-7.985.363-13.438 1.629-18.206 3.483-4.931 1.914-9.112 4.483-13.286 8.651-4.168 4.168-6.737 8.348-8.652 13.286-1.854 4.768-3.12 10.22-3.483 18.205-.37 7.996-.454 10.552-.454 30.92 0 20.367.084 22.924.454 30.921.364 7.984 1.63 13.437 3.483 18.205 1.915 4.931 4.478 9.117 8.652 13.285 4.168 4.168 8.348 6.73 13.286 8.651 4.774 1.854 10.221 3.12 18.206 3.483 8.003.363 10.554.454 30.922.454 20.374 0 22.925-.085 30.922-.454 7.985-.363 13.438-1.63 18.206-3.483 4.931-1.921 9.111-4.483 13.285-8.651 4.169-4.168 6.731-8.354 8.652-13.285 1.854-4.769 3.126-10.221 3.483-18.205.364-8.003.449-10.554.449-30.921 0-20.368-.085-22.924-.448-30.921-.363-7.984-1.63-13.437-3.483-18.205-1.921-4.932-4.483-9.112-8.652-13.286-4.168-4.168-8.354-6.737-13.279-8.651-4.774-1.854-10.227-3.126-18.206-3.483-7.998-.363-10.555-.454-30.923-.454-20.375 0-22.925.085-30.928.455" fill="#fff"/></svg>