<svg enable-background="new 0 0 600 200" height="200" viewBox="0 0 600 200" width="600" xmlns="http://www.w3.org/2000/svg"><path d="m98.997 39.117c30.305.062 55.318 22.528 59.758 51.888 10.328 1.509 18.789 4.21 25.543 7.216-.047-1.981-.17-2.96-.17-2.96l-.028-.029c-2.566-45.25-39.678-81.134-85.104-81.139-45.048.006-81.885 35.279-85.023 79.984.156 2.948 1.632 8.538 9.918 12.636l-.499-.141c8.377 4.572 21.448 9.941 36.866 9.969 11.468 0 26.753-3.077 39.416-11.707 8.858-6.037 18.984-11.723 29.961-11.743 3.392-.009 6.783.369 10.095 1.061.927.197 1.863.396 2.768.666 0 0 3.105 1.734 3.731-.324.345-1.138 0-2.113-.387-2.776-1.061-1.835-3.804-3.602-5.533-4.729-2.429-1.581-5.132-2.724-7.927-3.457-6.414-1.679-13.283-1.194-19.722.119-6.476 1.326-12.852 3.514-18.814 6.378-10.321 4.969-21.171 6.79-27.783 6.79-10.784-.028-17.254-4.737-21.36-9.531-1.479-1.746-2.601-3.494-3.442-5.017 7.625-24.947 30.532-43.098 57.736-43.154z" fill="#07a98d"/><path d="m313.645 49.382c-3.369-6.059-7.957-10.957-13.651-14.504-5.615-3.501-12.03-5.907-19.185-7.258-7.029-1.315-14.334-1.977-21.912-1.977h-55.087c-.883 0-1.748.362-2.363.992-.631.634-.98 1.51-.98 2.401v148.501c0 .898.341 1.754.98 2.391.633.643 1.477.992 2.363.992h19.451c.892 0 1.74-.35 2.368-.992.64-.637.985-1.49.985-2.391v-55.992h33.585c18.482 0 33.011-3.96 43.252-12.389 10.262-8.449 15.341-21.09 15.295-36.767-.001-9.039-1.627-16.751-5.101-23.007zm-53.008 47.706h-34.024v-46.994h33.364c4.63 0 8.989.324 13.08.955 3.913.601 7.238 1.762 10.069 3.417 2.696 1.603 4.789 3.767 6.411 6.678 1.506 2.718 2.403 6.588 2.403 11.688 0 4.22-.592 7.795-1.696 10.775-1.083 2.91-2.729 5.259-5.084 7.243-2.332 1.968-5.438 3.531-9.47 4.604-4 1.069-9.034 1.643-15.053 1.634zm186.832 60.381c-.635-.628-1.499-.99-2.376-.99h-86.925l-.007-43.604h77.91c.896 0 1.744-.355 2.374-.991.631-.639.979-1.497.979-2.405v-17.662c0-.896-.358-1.77-.979-2.398-.624-.635-1.498-.997-2.374-.997h-77.91v-38.328h83.671c.896 0 1.743-.352 2.37-.995.643-.634.988-1.486.988-2.392v-17.67c0-.891-.363-1.767-.977-2.401-.633-.63-1.491-.992-2.383-.992h-106.473c-.887 0-1.744.362-2.375.992-.619.634-.979 1.51-.979 2.401v148.501c0 .899.347 1.754.979 2.392.64.643 1.479.991 2.375.991h109.734c.89 0 1.737-.351 2.37-.991.635-.638.98-1.492.98-2.392v-17.677c.002-.888-.357-1.765-.972-2.392zm137.409-130.833c-.625-.63-1.487-.992-2.376-.992h-18.685c-.887 0-1.753.362-2.37.992-.625.634-.988 1.51-.988 2.401v106.052l-70.654-107.927c-.62-.943-1.673-1.518-2.803-1.518h-20.096c-.885 0-1.746.362-2.37.992-.621.634-.981 1.51-.981 2.401v148.501c0 .899.347 1.754.981 2.392.628.643 1.479.991 2.37.991h18.478c.894 0 1.738-.351 2.37-.991.635-.638.98-1.492.98-2.392v-105.899l70.994 107.774c.61.944 1.665 1.508 2.785 1.508h19.987c.9 0 1.745-.351 2.376-.991.63-.638.983-1.492.983-2.392v-148.501c.002-.891-.355-1.766-.981-2.401zm-424.928 74.378c-.063 1.832-.179 3.274-.239 3.948h-.043c-2.264 31.696-28.366 56.679-60.309 56.737-26.094-.055-47.435-14.565-55.869-37.766-5.906-1.344-20.038-5.158-28.86-12.367 0 .024-.006.05-.014.078 4.312 43.508 40.539 75.071 84.742 75.082 44.327-.011 80.733-34.17 84.86-77.863-8.208-4.25-17.13-6.576-24.268-7.849z" fill="#231f1f"/></svg>