<svg enable-background="new 0 0 600 200" height="200" viewBox="0 0 600 200" width="600" xmlns="http://www.w3.org/2000/svg"><path d="m275.688 165.374h59.971v8.38h-68.357v-18.361h8.387v9.981zm-28.349-4.364h-60.804v8.435h60.804v4.31h8.379v-51.475h-8.379zm-190.502-16.615c0 10.992-8.909 19.898-19.899 19.898-10.989 0-19.9-8.906-19.9-19.898 0-10.986 8.911-19.895 19.9-19.895 10.99 0 19.899 8.908 19.899 19.895zm-8.828 0c0-6.117-4.954-11.072-11.071-11.072-6.114 0-11.072 4.955-11.072 11.072 0 6.119 4.958 11.077 11.072 11.077 6.117 0 11.071-4.958 11.071-11.077zm38.092 29.359h8.385v-51.475h-8.385zm-14.796-43.09h-11.589v8.381h11.589v9.865h-11.589v8.38h11.589v16.464h8.384v-51.475h-8.384zm252.246 26.658h8.387v-35.043h-8.387v10.846h-12.577v8.387h12.577zm-52.606-6.611l15.896-13.808 15.894 13.808 5.499-6.328-13.436-11.672h11.581v-8.389h-39.077v8.389h11.582l-13.438 11.672zm-81.811-12.168c0-9.052 7.335-16.387 16.387-16.387 9.054 0 16.393 7.335 16.393 16.387s-7.339 16.387-16.393 16.387c-9.052 0-16.387-7.335-16.387-16.387zm8.811 0c0 4.184 3.394 7.575 7.575 7.575 4.184 0 7.578-3.392 7.578-7.575s-3.395-7.582-7.578-7.582c-4.181 0-7.575 3.398-7.575 7.582zm201.927 32.427c0 9.8-7.943 17.739-17.74 17.739-9.799 0-17.738-7.939-17.738-17.739 0-9.795 7.939-17.738 17.738-17.738 9.797-.001 17.74 7.943 17.74 17.738zm-8.824 0c0-4.926-3.992-8.917-8.916-8.917-4.925 0-8.916 3.991-8.916 8.917 0 4.927 3.991 8.919 8.916 8.919 4.924 0 8.916-3.993 8.916-8.919zm-10.889-30.962h-28.539v-7.346h28.539v-8.377h-36.922v24.102h36.922zm25.228-6.635v-11.094h-8.385v28.382h8.385v-8.903h12.577v-8.385zm-263.73-18.129l22.793 13.21 4.188-7.261-26.981-15.63-26.983 15.63 4.191 7.261zm4.191 27.544v-3.353h29.991v-8.086h-68.361v8.086h29.989v3.353h-29.989v8.086h59.98v3.353h-59.98v19.527h68.361v-8.09h-59.982v-3.35h59.982v-5.521-14.006h-29.991z"/><path d="m427.051 37.046c-.339.244-.785.482-1.194.705v-26.294h12.945c-.061.051-.125.117-.191.161-.092.071-.229.065-.321.145-.099.079-.175.259-.278.324-.398.245-.867.339-1.254.61-.132.082-.174.268-.283.366-.153.146-.404.18-.557.33-.19.198-.23.537-.415.749-.098.104-.245.147-.327.278-.163.273-.131.595-.277.886-.508 1.006-1.069 2.724-.748 4.061.137.54-.021.943.186 1.352.153.283.475.482.704.703.393.376.758.891 1.063 1.348.18.262.175.534.327.842.233.478.594.854.884 1.258.07.103.06.229.135.327.23.282.558.464.841.7.104.084.124.287.229.37.136.112.315.147.414.282.164.218.256.539.469.703.108.075.289.075.37.18.121.161.143.377.278.516.07.068.213.072.284.139.109.114.158.322.272.417.142.052.283.102.42.145.224.143.375.419.604.562.159.096.306.063.513.143.104.037.196.174.278.228.3.197.644.268.928.467.463.333.763.896 1.253 1.213-.185 1.47-1.352 2.51-2.316 3.218-.313.227-.519.709-.84.89-.312.169-.644.19-.928.375-.583.371-1.265.887-2 1.069-.486.12-.678-.221-1.156-.137-.045.006-.164.082-.191.092-.37.066-.851-.119-1.292-.092-.192.027-.377.061-.562.092-.038-.01-.154-.129-.186-.141-.359-.108-1.053-.008-1.348.049-.016-.016-.033-.032-.049-.049.033-.703.414-1.417.23-2.192-.503-2.17-.393-3.517-2.504-4.154-.354-.108-.735-.235-1.166-.186 0-.047 0-.091 0-.137-.022 0-.056 0-.089 0-.114.238-.343.588-.228 1.026.037.151.179.402.135.604-.037.181-.18.41-.234.563 0 .076 0 .156 0 .229-.031 0-.064 0-.092 0-.027.109-.06.219-.094.33-.031 0-.06 0-.092 0 0 .014.081.231.043.325-.016.064-.156.163-.179.23-.127.348-.116.558-.284.843-.266.455-.727.873-1.021 1.307-.108.166-.114.352-.233.51-.148.212-.426.384-.551.611-.112.186-.156.377-.325.509zm37.385-10.825c.431.106.981.322 1.396.417.475.129.846-.106 1.299-.133.834-.06 1.756.087 2.509-.094.61-.155 1.204.148 1.81 0 .813-.2 1.799-.515 2.552-.751.278.023.556.034.841.049.267-.076.424-.347.691-.42.169 0 .344 0 .514 0 .637-.21 1.334-.589 2.038-.742.114.01.219.027.327.044.306-.056.764-.229.884-.464.196-.292.271-.82.277-1.265-.136-.147-.087-.252-.37-.278-.109.07-.376.054-.557.043-.044-.081-.061-.07-.093-.182.241-.333-.054-1.334-.283-1.547-.219-.204-.557-.217-.742-.458-.196-.261-.866-1.012-1.112-1.169-.365-.237-.763-.313-1.161-.513-.157-.076-.315-.271-.463-.324-.17-.011-.345-.038-.513-.049-.709-.249-1.375-.698-2.132-.889-.376 0-.747 0-1.118 0-.224.163-.552.185-.742.382-.256.24-.431.599-.698.834-.168.152-.387.229-.562.373-.239.208-.332.595-.6.796-.202.14-.578.286-.791.366-.186.035-.365.067-.555.095-.415.237-.529.764-.835 1.123-.109.12-.327.088-.464.186-.098.063-.764.821-.84.933-.142.231.093.403-.049.695-.12.129-.245.253-.371.378 0 .219 0 .437 0 .655-.207.633-1.014.979-1.063 1.773.033 0 .06 0 .093 0 .228.155.565.058.883.136zm27.908 10.638c.071.24 1.068 1.614 1.254 1.724.942.552 2.263.66 3.626.657.496.011.993.033 1.482.045.121-.031.262-.195.416-.283.256-.127.512-.06.795-.185.164-.079.464-.251.649-.327.278-.045.556-.093.835-.137.659-.277 1.341-.739 1.946-1.077.295-.161.638-.155.932-.324.077-.048.077-.174.142-.237.154-.139.421-.106.601-.231.06-.035.049-.143.093-.187.077-.067.201-.075.278-.141.196-.142.261-.365.425-.557.076-.043.152-.096.229-.142.119-.136.168-.318.272-.469.065-.082.219-.106.283-.186.109-.295.212-.589.328-.884.07-.108.229-.234.277-.373.098-.292.125-.673.186-.935 0-.219 0-.438 0-.654.109-.491.169-.972.273-1.495-.028-.32-.056-.651-.094-.976.061-.237.224-.421.283-.607.17-.516-.043-1.062.094-1.628.049-.197.185-.394.229-.563.125-.469-.334-.779-.229-1.354-.065 0-.12 0-.187 0-.179.169-.474.359-.791.374-.12-.203-.229-.196-.419-.322-.246-.183-.453-.475-.697-.654-.323-.246-.698-.464-.928-.796-.25-.366-.878-1.816-1.16-1.958-.05-.032-.045-.03-.137-.05-.213.191-.546.219-.792.374-.468.298-1.007.521-1.531.791-.061.035-.159.16-.235.186-.256.093-.475.008-.692.101-.376.147-.702.344-1.02.557-.081.078-.157.157-.239.229-.121.022-.24.032-.371.053-.432.169-.823.523-1.249.694-.126.017-.251.033-.371.052-.195.101-.653.805-.883.979-.262.193-.605.341-.791.605-.283.403-.409.875-.698 1.26-.141.185-.393.239-.512.469-.159.305-.181.61-.372.877-.136.137-.277.257-.413.376-.142.191-.197.414-.328.612-.043.027-.087.06-.141.092-.027.218-.061.437-.094.654-.087.324-.181.657-.321.979-.219.482-.044 1.089-.186 1.633-.076.298-.257.63-.327.887-.131.477.186 1.096.278 1.398.133.406-.113.672.002 1.074zm-61.161 76.919c-.271-.175-.32-.557-.556-.741-.18-.148-.42-.191-.61-.333-.387-.298-.715-.769-1.02-1.167-.092-.129-.234-.137-.37-.231-.093-.068-.11-.196-.187-.281-.174-.196-.387-.303-.604-.47-.256-.194-.398-.52-.605-.793-.153-.204-.419-.283-.595-.46-.137-.129-.098-.344-.191-.513-.113-.197-.354-.366-.463-.563-.055-.092-.088-.2-.125-.309v6.476h6.696c-.312-.158-.605-.326-.905-.472-.154-.051-.311-.094-.465-.143zm111.088-17.498c.371-.11.789.079 1.068-.093.508-.309.906-1.162 1.249-1.677.076-.101.256-.181.326-.275.235-.331.153-1.849.049-2.239-.016-.264-.031-.531-.049-.793-.104-.354-.364-.676-.507-.984-.098-.198-.049-.365-.141-.559-.258-.535-.982-1.13-1.811-1.112-.535.354-1.713-.056-2.274.272-.507.301-1.063.933-1.347 1.45-.186.324-.219.668-.426.977-.256.409-.747.612-1.156.888-.31.206-.545.517-.784.794-.06.063-.181.076-.235.14-.174.195-.093.6-.185.885-.131.377-.383.859-.513 1.215-.087.224-.038.414-.143.599-.098.181-.229.206-.277.476 1.576.901 5.281.638 7.156.036zm-107.609-33.159c.147.414.894.866 1.582.695.201-.052.497-.197.79-.139.339.072.928.198 1.348.095.234-.054.664-.172 1.02-.095.349.072.784.092 1.16.049 0-.033 0-.061 0-.097.219-.253.176-1.703.279-2.188.19-.865.131-2.968-.093-3.731-.044-.158.044-.951 0-1.221.06-.322.126-.65.186-.971.147-.603.093-1.35 0-1.826-.071 0-.153 0-.229 0-.146.259-.311.507-.512.708-.039.033-.154.044-.191.087-.108.137-.049.403-.181.512-.239.198-.61.361-.79.612-.245.338-.245.921-.512 1.255-.109.138-.383.07-.508.189-.196.175-.143.644-.283.887-.131.24-.442.428-.601.651-.124.175-.158.388-.277.562-.108.142-.322.213-.47.324-.229.184-.419.555-.6.799-.273.354-.637.516-.791 1.021-.092.3.076.72-.049 1.068-.064.208-.353.547-.278.754zm24.567 32.701c.458-.36 1.122-.426 1.722-.194.247.101.547.33.977.237.388-.078.965.02 1.44-.099.921-.207 1.794-.032 2.645.191.447 0 .9 0 1.346 0 1.392 0 2.379-.104 3.393-.376.055-.3.316-.523.42-.791.104-.274.088-.475.229-.697.081-.115.261-.141.32-.279.24-.517.224-1.243.378-1.818.097-.373.44-.84.327-1.35-.23-.986-.813-1.068-1.489-1.545-.093-.14-.186-.281-.278-.418-.289-.224-.622-.343-.932-.561-.087-.099-.181-.187-.279-.278-.272-.015-.55-.033-.833-.05-.583-.073-1.174-.155-1.762-.234-.12.076-.3.006-.47.046-.403.106-.84.254-1.16.472-.138.153-.279.311-.415.47-.541.387-1.13.673-1.626 1.112-.06.06-.043.16-.097.229-.197.197-.399.382-.601.563-.088.121-.092.251-.19.376-.131.109-.273.219-.409.329-.114.189-.093.368-.191.561-.125.239-.403.392-.555.6-.109.149-.127.313-.23.471-.108.145-.322.218-.469.324-.24.187-1.396 1.511-1.482 1.775 0 .246 0 .497 0 .741.117.094.079.148.271.193zm123.55-84.365v102.937h-24.368c.136-.37.136-.85.299-1.218.181-.409.535-.641.742-.985.098-.25.187-.5.278-.746.409-.69.545-1.862.741-2.754.065-.275-.049-.589-.086-.793-.12-.567.054-1.241.136-1.628.038-.197-.066-.289-.093-.375-.072-.266.082-1.188.142-1.446.098-.463-.214-.725-.142-1.077.164-.788.441-1.636.648-2.331.032-.46.06-.927.092-1.398.038-.095.197-.172.235-.278.065-.182-.026-.535-.049-.651-.032-.19.065-.376.088-.518.049-.191-.061-.415-.088-.556-.044-.225.098-1.231.19-1.396.061-.143.263-.292.322-.476 0-.139 0-.28 0-.414.07-.294.213-.605.371-.842.146-.205.393-.222.604-.371.087-.062.269-.376.322-.464.092-.286.19-.564.278-.843.141-.375.567-.3.976-.419.332-.098.698-.246 1.021-.325.495.014.991.027 1.488.046.496-.142 1.052-.751 1.858-.512.557.158.851.718 1.298.977.438.25 1.118.25 1.538.512.463.295.911.788 1.386 1.074.267.158.633.213.839.421.175.173.295.436.513.562.153.029.311.063.463.086.235.105.524.34.791.426.698.219 2.236-.256 2.509-.512.142-.175.398-.852.272-1.215-.027-.105-.19-.215-.224-.328-.126-.385.028-.849-.142-1.167-.131-.237-.414-.432-.557-.646-.146-.211-.18-.456-.326-.655-.137-.177-.383-.195-.557-.329-.256-.196-.523-.473-.84-.608-.426-.18-.807-.16-1.254-.33-.36-.123-.671-.455-1.02-.602-.197-.077-.458.023-.698-.05-.284-.079-.513-.324-.791-.417-.638-.21-1.745-.152-2.552-.137-.25.166-.703.044-1.02.137-.191.057-.414.222-.605.281-.382.119-.6.119-.977.23-.436.14-.845.438-1.26.611-.338.077-.676.155-1.014.232-.306.141-.595.411-.883.559-.234.126-.48.098-.693.234-.365.234-.752.632-1.073.93-.011 0-.033 0-.044 0-.049-.417-.093-.834-.142-1.252-.044-.142-.229-.25-.283-.376-.011-.128-.028-.25-.039-.382-.229-.507-.921-.643-1.488-.834-.327-.109-.982-.257-1.304 0-.387.316-.088.9-.229 1.494-.157.665-.25 1.54-.419 2.238-.109.488.021.902-.094 1.353-.098.396-.343.782-.457 1.114 0 .115 0 .219 0 .328-.082.262-.234.687-.328.933-.032.24-.06.469-.092.703-.092.219-.306.47-.372.698 0 .155 0 .316 0 .475-.141.603-.2 1.346-.332 1.905 0 .172 0 .346 0 .517-.042.189-.18.426-.229.607-.082.297.005.542-.093.79-.054.149-.219.341-.278.467-.026.174-.06.341-.093.518-.054.108-.229.245-.277.374-.049.209-.094.433-.143.654-.086.171-.306.4-.37.6-.142.422-.011.804-.229 1.121-.214.31-.661.572-.928.834.005.572.295.512.415.888 0 .361 0 .715 0 1.075.027.087.158.229.185.326.158.564-.092 1.269-.185 1.687-.104.479.016 1.171.093 1.531 0 .295 0 .595 0 .892.135.398.593.641.791.974.042.081.097.16.146.244h-11.869c.174-.583-.269-1.237-.16-1.829.029-.168-.098-.439-.141-.651-.076-.333.114-.782 0-.979-.207-.423-1.604-.33-2.187-.182-1.134.271-2.198.647-3.294.926-.523.137-1.14-.186-1.531-.278-.137 0-.279 0-.415 0-.393-.117-1.123-.466-1.439-.7-.169-.128-.197-.396-.327-.563-.021-.024-.539-.376-.605-.423-.507-.354-1.123-.479-1.347-1.111-.187-.521.229-1.385.229-2.054 0-.681-.151-1.659.055-2.29.065-.221.208-.553.272-.837.027-.311.066-.624.098-.933.089-.299.317-.578.415-.889.153-.474.187-.845.366-1.306.19-.439.469-.826.653-1.303.523-.093.644.245 1.025.37.315.106.584.063.884.191.861.352 2.028.913 3.107 1.025.235.024.541-.229.742-.284.562-.149.9.21 1.445.094.484-.113 1.26.04 1.854-.094.469-.101.954-.271 1.348-.368.528-.147 1.008.262 1.396.368.501.139 1.945.117 2.459 0 .245 0 .497 0 .742 0 .735-.198 1.733-.496 2.278-.933.202-.166.311-.597.551-.793.033-.544-.267-1.462-.648-1.681-.441-.25-1.106-.127-1.575-.375-.454-.234-.665-.737-.972-1.118.038-.397.398-.525.273-1.074-.056-.244-.284-1.117-.187-1.445.034-.105.197-.259.235-.365.108-.339.037-1.169-.142-1.404-.132-.318-.376-.186-.692-.324-.453-.196-.741-.736-1.211-.895.044-.492.388-1.012.136-1.488-.288-.556-1.145-.728-1.669-1.071-.255-.168-.201-.444-.371-.695-.342-.507-1.635-.859-2.508-.839-.157.113-.392.06-.604.135-.19.068-.37.271-.557.327-.37 0-.746 0-1.112 0-.17.038-.377.153-.513.187-.288.07-.446-.099-.604-.143-.409-.109-1.69.316-1.904.473-.348.25-.779.758-1.019 1.114-.093.137-.104.278-.234.373-.312.222-.441.45-.698.701-.186.19-.497.292-.649.51-.125.188-.157.382-.278.562-.24.347-.647.625-.883.984-.257.382-.3.864-.562 1.257-.257.399-.644.867-.878 1.257-.093.283-.186.563-.279.846-.217.359-.523.802-.697 1.205-.098.24-.049.485-.136.747-.066.186-.218.376-.283.561-.126.389-.094.688-.229 1.077-.038.109-.191.238-.234.322-.153.292-.088.629-.229.933-.202.434-.508.995-.649 1.493-.017.287-.038.563-.049.844-.044.125-.147.324-.187.463-.031.257-.064.502-.092.747-.109.344-.316.692-.42 1.074-.104.388.092.646-.043 1.03-.115.307-.355.715-.471 1.07-.169.544-.151 1.656-.042 2.191.108.502-.077 1.021.093 1.444.049.12.218.224.277.322.464.831.884 1.573 1.396 2.339.271.407.719.676 1.112.977.141.109.181.354.327.472.261.193.653.463 1.024.705h-14.286c.028-.106.05-.2.071-.288.017-.437.033-.867.044-1.307.157-.643.447-1.213.61-1.913.104-.475-.295-.826-.142-1.447.104-.429.409-.555.557-.89.026-.169.06-.338.093-.51.076-.193.251-.422.322-.607.098-.262.13-.584.189-.838-.021-.172-.032-.341-.049-.51.027-.146.153-.371.181-.513.065-.271-.132-.409-.181-.562-.104-.347.049-1.396.098-1.729-.049-.388-.098-.774-.146-1.168.164-.953.213-1.971.514-2.75.18-.472-.263-.697-.143-1.169.125-.431.475-.905.605-1.305.064-.448.131-.898.191-1.353.049-.141.229-.283.277-.418.082-.222.021-.353.136-.513.383-.54 2.116-.966 2.972-1.118.159-.033.279.065.371.093.284.071 1.074.095 1.396 0 .169-.05.316-.227.463-.278.153-.022.312-.033.463-.049.47-.206.722-.748 1.119-1.022-.006-1.394-1.238-2.402-2.23-2.801-.158-.015-.311-.034-.463-.049-.557-.149-1.789-.49-1.953-.981-.082-.147.333-1.353.42-1.581.186-.519.381-1.472.18-2.149-.043-.154-.185-.354-.229-.514-.131-.467-.12-.919-.42-1.209-.07-.021-.152-.033-.229-.049-.459-.272-.813-.779-1.396-.933-.539-.142-1.232.382-1.674 0-.541 0-.856.322-.976.748-.229.376.245 1.297.054 1.864-.076.201-.223.504-.283.746 0 .246 0 .497 0 .748-.077.246-.283.566-.365.834-.033.218-.07.441-.099.654-.082.234-.245.532-.321.744-.021.128-.033.254-.049.379-.11.239-.382.42-.514.698-.604.136-1.755.447-2.459.234-.256-.078-.518-.294-.742-.379-.158-.011-.311-.024-.469-.044-.31-.105-.605-.396-.927-.51-.32-.029-.647-.059-.976-.098-.322-.082-.91-.303-1.254-.186-.18.065-.311.273-.464.376.045.382.208.638.278.977-.017.313-.033.624-.05.935.093.344.29.42.377.606.108.242.055.438.137.702.098.304.343.827.513 1.115.086.147.271.18.42.278.195.148.354.421.556.563.289.214 1.184.585 1.532.702.763.242 1.811.067 2.509.37.169.9-.099 1.89-.28 2.662.018.261.029.523.05.79-.109.457-.255 1.036-.375 1.495 0 .298 0 .593 0 .888-.065.284-.202.911-.142 1.21.037.143.152.38.098.606-.016.06-.12.217-.142.276-.017.22-.033.435-.044.655-.076.224-.294.359-.37.562-.142.342-.071.674-.191 1.022-.032.095-.153.271-.185.379-.028.312-.061.62-.094.933-.044.164-.18.311-.229.464-.033.267-.066.531-.093.791-.094.113-.187.217-.278.324-.294 0-.437-.015-.654 0 .016.482.18.867.277 1.268 0 .229 0 .464 0 .69.023.084.121.286.143.384.108.47-.268 1.076-.093 1.724.196.73.349 1.572.687 2.245h-27.732c.344-.253.691-.713.807-1.082 0-.136 0-.274 0-.423.065-.258.245-.691.137-1.065-.076-.297-.366-.423-.513-.657-.284-.466-.354-.933-.552-1.494-.07-.19-.277-.414-.32-.605-.06-.21.349-1.439.413-1.729.11-.469.077-1.646 0-2.097.093-.809.186-1.616.278-2.43.082-.277.327-.354.469-.558.202-.309.202-.748.409-1.02.132-.178.376-.252.47-.47.158-.392.229-.831.321-1.21 0-.254 0-.502 0-.75.104-.365.354-.786.469-1.166.028-.219.061-.438.093-.655.158-.317.639-.423.834-.654.447-.529.572-1.282.977-1.864.234-.347.773-.355 1.112-.606.338-.253.464-.854.835-1.071.239-.139.479-.13.697-.275.169-.117.246-.354.37-.516.274-.344.993-.787 1.44-.932.371-.12.943.054 1.254.092.256.025.704-.122.977 0 .327.143.566.521.883.702.727.393 1.293.607 1.625 1.396.033.251.055.496.093.746.213.628.207.92.044 1.628-.115.521.104 1.133-.044 1.59-.186.567-.272 1.403-.415 2.004 0 .161 0 .313 0 .472-.125.466-.425.891-.561 1.396.016.216.033.437.049.655-.021.082-.158.25-.186.326-.044.295-.099.59-.137.883-.141.456-.251.991-.426 1.495-.113.339-.321.688-.37 1.123-.213.099-.741.142-.927.278-.301.204-.201.695-.605.834-.011.834.131.435.513.748.169.143.245.527.513.703-.006.684.146 1.118.327 1.58-.152.658.571 2.368.927 2.667.229.074.464.149.691.234.699.401.737.601 1.626.183.065 0 .132 0 .191 0 .07-.032.315-.215.37-.28.557-.695-.027-1.806.371-2.478.3-.497.818-1.006 1.02-1.578.016-.159.033-.316.049-.471.104-.351.272-.686.371-1.024.016-.19.027-.374.044-.56.125-.428.463-.81.611-1.216.026-.294.06-.592.086-.883.017-.046.121-.18.142-.232.012-.346.033-.689.044-1.03.077-.268.208-.636.278-.934-.016-.448-.026-.898-.044-1.349.208-.739.77-1.187.977-1.914-.033-.548-.065-1.087-.099-1.633.191-.916.099-2.219-.135-2.982-.012-.268-.034-.531-.05-.796-.099-.371-1.146-1.86-1.435-2.002-.349-.168-.742-.113-1.068-.33-.295-.193-.523-.613-.84-.794-.322-.179-.638-.159-.928-.37-.332-.25-.468-.605-.932-.75-1.08-.335-2.612-.264-3.713 0-.279.02-.558.033-.835.044-.431.122-.976.338-1.396.472-.181.027-.372.061-.557.093-.381.183-.791.463-1.156.649-.518.271-1.03.398-1.488.705-.234.153-.464.412-.693.561-.189.053-.376.119-.561.182-.328-.017-.365-.145-.557-.275-.088-.393-.039-1.107-.186-1.496-.104-.249-.344-.439-.42-.745 0-.169 0-.34 0-.513-.033-.104-.19-.244-.234-.321-.027-.194-.06-.382-.087-.564-.327-.793-.998-1.253-2.095-1.262-.169.142-.299.18-.371.416-.195.33.006 1.235-.092 1.683-.06.254-.168.588-.234.796-.147.491-.043.927-.229 1.353-.136.309-.382.726-.513 1.071-.189.518-.277 1.044-.419 1.585-.011.171-.028.343-.044.515-.027.073-.154.171-.186.237-.12.234-.022.494-.093.791-.07.286-.245.609-.321.889 0 .186 0 .365 0 .556-.077.312-.213.671-.283.932.011.312.031.622.049.934-.137.738-.207 1.516-.377 2.237-.098.418.017.737-.093 1.122-.147.513-.469.544-.687.889-.143.202-.225.534-.289.791 0 .326 0 .653 0 .978-.121.698-.011 1.811.143 2.474.08.362-.082.521 0 .889.031.167.173.417.146.606-.087.399-.333.752-.426 1.116-.098.377.088.709.137.933 0 .344 0 .682 0 1.025.016.064.131.224.143.286.031.401.06.808.092 1.214.152.409.779.965 1.385 1.356h-16.414c.285-.294.475-.661.492-1.128-.191-.191-.383-.586-.557-.747-.35-.321-.872-.357-1.342-.562-.251-.101-.37-.332-.561-.464-.143-.093-.301-.085-.421-.188-.507-.445-.119-.987-1.297-.979-.415.441-.884.408-1.446.697-.06.081-.113.158-.18.235-.245.157-.965.277-1.302.141-.416-.168-.847-.528-1.207-.796-.218-.213-.435-.431-.647-.648-.355-.13-.715-.251-1.07-.377-.195-.146-.332-.61-.556-.79-.021-.409-.104-.892.044-1.26.077-.202.344-.316.234-.752-.164-.623-.402-1.305-.562-1.865-.186-.682.289-1.238.186-1.77-.158-.793-.224-1.23-.038-2.054.082-.403-.077-.861.038-1.21.055-.152.25-.861.327-.979.098-.145.283-.172.42-.279.064-.057.037-.16.087-.23.36-.514.905-.759 1.075-1.501.393.052.408.547.604.798.044.013.087.026.138.041.146.157.119.317.233.515.151.272.528.431.785.607.153.106.288.347.47.417.228.017.463.033.697.05.332.092.709.316 1.019.419.171.056 1.604.225 1.762.191.169-.043.558-.117.742-.102 1.112.129 2.71-.043 3.768-.323.338-.087.682.084.928.139.224.052.551-.057.692-.043.376.035.801.159 1.16.185.209-.063.404-.128.605-.185.29-.071.938-.171 1.249-.096.065.011.251.082.378.052.299-.079.533-.316.832-.417.398-.153.847-.087 1.162-.287.213-.128.545-.534.748-.607.289-.104.567-.003.828-.09.677-.218 1.512-1.1 1.074-2.054-.208-.446-.682-.42-1.112-.654-.272-.142-.426-.365-.79-.468-.469-.13-.943-.099-1.212-.421-.048-.064-.037-.127.05-.234.125-.344.502-.27.791-.464.174-.117.266-.365.415-.513-.018-.201-.028-.397-.044-.603-.279-.265-.645-.454-.977-.654-.213-.553.272-1.288.094-1.584-.083-.224-.492-.513-.699-.616-.163-.764-.109-2.153-.463-2.751-.186-.302-1.036-.499-1.396-.602-.137 0-.277 0-.415 0-.718-.29-1.429-.756-2.137-1.025-.589-.224-1.326.027-2.039-.14-.278-.068-.639-.101-1.026-.09-.838.593-1.673-.183-2.697.043-1.043.23-1.522.23-2.271.748-.299.207-.534.813-.839 1.065-.393.33-.895.493-1.248.846-.208.199-.344.411-.514.651-.219.3-.615.464-.84.747-.381.502-.741.995-1.111 1.495-.061.075-.153.075-.235.141-.054.041-.654.682-.692.742-.234.332-.354.706-.605 1.027-.229.281-.55.572-.74.889-.115.172-.115.402-.23.56-.049.054-.196.081-.234.142-.186.245-.201.601-.327.877-.093.214-.333.404-.419.611-.186.461-.186.919-.415 1.309-.082.12-.268.279-.327.414-.169.371-.125 1.016-.229 1.451-.159.616-.371 1.257-.514 1.821 0 .152 0 .308 0 .464-.131.479-.098 1.166-.233 1.723-.056.224-.181.459-.235.654-.027.671-.054 1.339-.092 2.006-.039.148-.191.282-.229.421.016.152.033.31.044.466.031.625-.109 1.208.049 1.775.098.338.387.627.506.933.082.177.007.354.1.513.137.223.42.375.555.61.094.242.187.493.279.741.224.36.644.817.977 1.074.076.06.174.06.229.142.195.268.272.581.518.794.181.158.485.128.693.275.071.055.12.207.185.277.175.193.552.453.786.559.114.022.217.036.332.053.033.005.064.033.098.054h-11.342c0-.005.005-.005.005-.011.442-.305 1.272-.611 1.577-1.024.093-.126.082-.302.185-.417.132-.152.295-.204.37-.423.149-.229 0-.703-.042-.891-.071-.238-.018-.471-.143-.655-.201-.289-.633-.4-.927-.6-.19-.129-.332-.385-.512-.516-.17-.063-.339-.12-.509-.186-.332-.256-.288-.676-.839-.747-.082-.729-.725-1.265-1.39-1.396-.421.343-.982.441-1.445.744-.24.158-.383.477-.601.651-.108.085-.217.104-.326.187-.229.185-.213.49-.372.746-.06.099-.687.523-.79.567-.295.011-.584.026-.883.044-1.113.322-2.667.274-3.855 0-.42-.099-.698-.006-1.021-.142-.272-.115-.594-.398-.79-.612-.027-.06-.061-.119-.087-.185-.056 0-.093 0-.142 0-.241-.114-.562-.277-.742-.464-.131-.13-.169-.311-.283-.463-.115-.17-.35-.25-.512-.377-.127-.103-.159-.299-.273-.419-.076-.074-.202-.074-.284-.143-.195-.164-.35-.436-.556-.604-.05-.017-.093-.033-.137-.05-.109-.288-.213-.589-.321-.883-.093-.147-.312-.272-.377-.421-.262-.623.115-1.577-.049-2.284-.038-.185-.207-.697-.18-.84.026-.188.108-.627.044-.887-.187-.714-.295-.97-.098-1.724.021-.127.037-.252.054-.374.397-.821 1.009-1.317 1.254-2.337.12-.541-.272-.727-.37-1.02-.094-.251-.055-.756-.1-.988-.098-.475.24-.495.42-.697.187-.202.158-.57.279-.84.119-.262.365-.469.506-.695.066-.234.127-.466.188-.705.092-.2.32-.29.425-.458.125-.225.081-.513.185-.751.311-.742.943-1.463 1.484-2.006.146-.156.32-.455.512-.554.474-.254 1.139-.12 1.669-.332.212-.085.408-.409.604-.513.262-.137.458-.137.698-.278.332-.202.726-.619 1.112-.747.773 0 1.543 0 2.324 0 .103.026.32.114.418.142.214.049.365-.014.514.087.567.278 1.193 2.039 1.668 2.611.469.572 2.083.535 2.973.47.185.06.37.125.556.188 1.03.248 2.351-.382 2.694-.844.103-.133.064-.331.135-.512.127-.29.453-.864.377-1.303-.152-.884-1.26-1.789-1.902-2.236-.197-.137-.289-.403-.513-.513-.393-.212-.655-.196-1.162-.329-.158-.042-.338-.184-.469-.232-.174-.076-1.521-.114-1.626-.051-.255 0-.528 0-.784 0-.076-.094-.158-.184-.234-.276-.186-.128-.441-.309-.649-.377-.714-.239-1.75-.276-2.645-.276-.354 0-.715 0-1.069 0-1.569.446-3.173.889-4.41 1.682-.79.505-1.424 1.275-2.089 1.911-.104.093-.268.093-.37.185-.208.165-.312.385-.47.603-.202.188-.404.377-.6.56-.19.259-.223.63-.42.889-.207.268-.545.476-.742.747-.109.153-.125.36-.234.512-.109.153-.311.164-.469.279 0 0-.736.932-.736.935-.348.663-.441 1.435-.795 2.098-.104.113-.208.217-.323.328-.124.205-.124.424-.233.653-.055.119-.219.226-.279.327-.18.32-.151.684-.271 1.07-.082.265-.268.505-.377.701-.18.322-.104.741-.234 1.118-.071.232-.245.449-.322.654-.162.423-.113.919-.276 1.349-.101.249-.202.547-.312.854v-21.364c.011.011.016.033.033.038.178.13.436.09.648.186.3.147.322.581.976.426.278-.077.556-.159.835-.229.207-.177.213-.409.513-.519.071-.582.142-1.319.278-1.907.129-.579-.229-.978-.044-1.5.387-1.11.991-2.115 1.39-3.166.099-.264-.016-.548.093-.848.104-.104.219-.219.327-.322.027-.234.061-.469.088-.698.146-.201.278-.405.42-.607-.099-.396.19-.487.283-.794.012-.283.027-.561.044-.837.071-.223.306-.34.414-.515.065-.186.125-.371.185-.563.398-.067.971 0 1.255.191.077.076.157.152.234.234.262.109.741.12.976.181.563.152 1.451.064 1.953-.044.773-.17 2.05-.006 2.737.137.426.092.507-.107.878.098.049.137.163.37.189.465.1.304-.205.729-.283.926-.044.338-.086.659-.136.984-.087.3-.272.676-.371 1.027-.18.672.022 1.32-.321 1.772-.076.104-.19.182-.327.098-.268-.008-.446.007-.604.091.032.45.223.728.326 1.071.011.158.026.317.044.469.108.327.338.726.47 1.024.027.203.06.409.092.609.119.346.42.602.6.879.076.225.158.439.229.656.338.496 1.281.806 1.718 1.262 1.065-.041 2.274-1.498 2.558-2.375.114-.343-.027-.743.098-1.123.098-.305.377-.788.464-1.124-.017-.106-.032-.212-.049-.321.017-.516.032-1.027.049-1.543.279-1.232.235-2.719.601-3.915.272-.071.632-.219.888-.283.4.048.797.092 1.206.143 1.298-.173 2.857-.394 3.158-1.589.108-.446-.187-.741-.279-1.024-.213-.633-.431-.99-.932-1.303-.213-.063-.432-.126-.644-.188-.213-.129-.355-.428-.611-.516-.371-.011-.741-.032-1.112-.044-.158-.04-.256-.179-.375-.231-.279-.045-.558-.096-.835-.143-.187-.083-.354-.308-.552-.419-.098-.488-.005-1.082.088-1.54 0-.426 0-.84 0-1.26.021-.099.114-.383.141-.508 0-.236 0-.471 0-.703.066-.207.301-.408.372-.61.049-.589.092-1.179.142-1.771.006-.976-1.168-2.49-.469-3.41.186-.359.621-.311 1.024-.464.442-.163 1.036-.492 1.249-.883.033-.169.066-.341.099-.518.321-1.086-.453-1.751-.977-2.282-.125-.143-.251-.281-.371-.42-.441-.231-1.122-.281-1.624-.416-.502-.139-1.266.105-1.675-.14-.376-.025-.845-.527-1.069-.748-.305.052-.435.232-.648.374-.016.014-.033.03-.049.044-.169-.284-.327-.663-.644-.794-.158-.023-.316-.063-.469-.09-.338-.18-.315-.295-.928-.283-.223.169-.687.457-.932.559-.175.08-.321.016-.464.09-.201.123-.364.42-.557.519-.162.087-.354.008-.463.139-.043.139-.092.278-.137.419-.344.652-.572 1.497-.976 2.098-.218.326-.655.654-.883.981-.12.163-.12.387-.235.562-.35.535-.785 1.079-1.111 1.634-.147.241-.033.589-.143.886-.104.27-.633.872-.785 1.164-.114.201.065.416-.055.607-.158.257-.562.438-.742.698-.037.065-.311.534-.327.556 0 .133 0 .249 0 .377-.064.142-.331.222-.408.376-.087.161-.056.317-.142.467-.19.297-.486.597-.654.933-.061.259-.125.524-.181.793-.175.47-.491.873-.796 1.216-.349-.033-.342-.188-.551-.283-.311-.046-.621-.095-.932-.142-.109.096-.219.19-.322.28-.021.542.055 1.055.277 1.494.201.4.629.698.421 1.398-.114.371-.354.747-.519 1.069-.044.22-.087.441-.137.654-.08.224-.289.522-.375.746-.012.126-.022.255-.045.377-.087.195-.332.439-.419.648 0 .208 0 .409 0 .605-.056.178-.212.48-.321.66-.225.354-.764.534-1.053.867v-26.256c.037.172.076.338.169.474.136.197.572.519.79.611.203.085.438.065.605.186.344.006.338-.081.415-.327.153.021.332.087.468 0 .438-.163.377-.684.558-1.12.044-.102.185-.178.234-.278.075-.211.016-.442.136-.608.066-.026.119-.061.186-.094.072-.086.061-.244.143-.326.075-.083.229-.075.32-.142.082-.106.152-.213.234-.321.044-.017.093-.033.137-.05.022-.076.038-.158.045-.231.113-.199.348-.377.469-.559.032-.094.06-.188.092-.282.109-.098.219-.187.326-.282.306-.426.568-.837.879-1.251.104-.143.3-.208.42-.333.283.04.654.183.791.374.064.083.021.244.092.324.066.084.263.054.328.144.064.098.049.26.136.325.093.019.187.032.284.047.142.1.195.34.365.417.251.125.523.021.791.138.212.098.287.391.463.521.094.023.186.065.283.087.076.096.033.278.088.376.294.461 1.123 1.173 1.668 1.347.463.153 1.167-.163 1.396-.322.158-.113.256-.358.463-.425.142.018.284.042.42.05.35-.071.709-.087 1.118-.181 1.178-.289 2.519-.615 3.621-.932.186-.02.376-.033.556-.052.158-.058.35-.26.512-.325.11-.017.22-.032.323-.047.087-.067.07-.25.141-.324.066-.076.202-.087.283-.142.383-.288.617-.954.693-1.538.599-.163 1.211-.56 1.718-.84.152-.048.311-.092.463-.138.18-.118.207-.438.372-.564.157-.05.31-.088.463-.138.132-.086.943-1.146 1.02-1.309.142-.255.05-.572.147-.885.469-1.644-.338-3.484-1.024-4.569-.132-.21-.421-.273-.563-.47-1.089-1.567-3.015-2.38-4.59-3.457-.53-.356-1.228-.422-1.768-.787-.119-.08-.125-.29-.229-.377-.146-.111-.37-.111-.507-.227-.523-.434-1.041-.858-1.581-1.262-.126-.132-.25-.249-.376-.377-.333-.191-.611-.311-.883-.556-.033-.08-.061-.15-.094-.237-.191-.204-.539-.376-.697-.603-.044-.12-.088-.251-.137-.379-.131-.188-.42-.303-.557-.505-.169-.251-.25-.528-.419-.746-.165-.221-.12-.519-.235-.796-.218-.547-.801-1.223-.556-2.187.103-.41.371-.709.507-1.035.038-.171.066-.343.098-.509.021-.052.519-.894.557-.938.088-.086.229-.108.328-.18.375-.294.773-.706 1.248-.888.273-.11.578-.044.791-.093.125-.029.277-.159.376-.191.463-.147.817-.063 1.304-.181.354-.087 1.87-.474 2.317-.332.413.136.774.475 1.161.653-.006.338-.164.514-.094.841.246 1.15.716 1.864 1.577 2.38.251.145.687.047.889.234.087.155-.028.441.043.655.109.335.388.407.649.602.334-.026.572-.234.742-.42.224.033.348.147.463.281.191 0 .371 0 .562 0 .071-.033.087-.213.142-.281.115-.144.344-.169.459-.321.365.011.397.143.6.229.321.138.752.119 1.117.188.803-.756 1.293-1.391 1.068-2.897 0-.432 0-.867 0-1.304-.043-.143-.233-.229-.271-.368-.126-.417.212-.886.087-1.404-.055-.224-.224-.35-.272-.513 0-.126 0-.245 0-.37-.039-.093-.109-.174-.186-.26h104.75c-.131.747-.201 1.541-.355 2.17-.108.467.094.849 0 1.262-.075.34-.305.622-.419.928-.142.394-.104.692-.229 1.124-.093.311-.316.651-.42.981-.187.597-.345 1.265-.513 1.864-.055.197.021.426.093.513-.033.363-.268.342-.371.6-.152.404-.077.876-.229 1.309-.049.126-.195.246-.234.377-.016.278-.027.561-.043.84-.322 1.133-.639 2.345-.933 3.591-.109.455-.099.901-.185 1.306 0 .234 0 .47 0 .697-.1.273-.338.696-.416.984-.093.309.072.542-.049.887-.104.297-.327.654-.42.979-.092.325.055.695 0 .98-.021.13-.147.298-.185.415 0 .161 0 .314 0 .473-.098.42-.213 1.243-.415 1.584.006.472-.146.344-.42.51-.185.283-.076.714-.185 1.069-.061.195-.208.578-.328.757-.087.132-.327.298-.364.462-.088.291.605 1.049.692 1.306.125.395-.055.682.049.983.092.298.108 1.063.038 1.347-.016.093-.087.355-.038.516.098.376.294 1.287.507 1.587.108.093.217.19.327.278.093.137.093.289.185.419.203.301 1.168.988 1.762.84.207-.049.441-.206.605-.279.251-.102.507-.173.649-.376.36-.497.245-1.247.42-1.962.032-.122.152-.459.142-.6-.038-.33-.268-.892-.142-1.404.185-.749.289-1.507.469-2.281.011-.328.022-.654.038-.981-.027-.098-.146-.23-.087-.42.022-.093.153-.254.185-.374.071-.25 0-.439.093-.65.06-.143.224-.29.279-.465.031-.188.064-.373.091-.567.05-.116.192-.274.236-.414.097-.349-.078-.763 0-1.071.021-.098.152-.242.179-.325 0-.204 0-.409 0-.609.06-.213.06-.505.142-.791.251-.879.699-1.877.883-2.755-.016-.171-.031-.34-.049-.512.203-.91.181-1.903.464-2.754.077-.223.307-.373.377-.556.011-.235.027-.469.049-.698.115-.327.349-.717.458-1.025.126-.365.061-.674.191-.986.114-.273.358-.683.458-.981.169-.485.288-.976.42-1.44.016-.19.033-.37.049-.562.093-.25.398-.46.508-.697.142-.309.119-.622.277-.933.088-.164.311-.338.37-.516.093-.231.044-.598.1-.838.103-.43.026-1.234-.045-1.589.012-.204.022-.4.045-.607.016-.306-.089-.429-.143-.605-.032-.327-.061-.648-.092-.982-.209-.484-.535-.942-.923-1.327h20.904zm-93.266 27.084c.104.156.339.225.464.366.181.207.109.505.376.706.137.104.313.143.415.273.206.285.35.565.556.845.175.237.486.396.693.604.141.153.278.306.42.464.463.336.976.45 1.538.703.054.021.157.163.228.186.285.087.688.037.929 0 .206-.032.97.137 1.166.186.262 0 .523 0 .785 0 .577.155 1.5.158 2.138.278.195-.027.398-.061.605-.09.43.046 1.101.168 1.625.046.371-.106.741-.218 1.112-.333.294-.011.589-.024.883-.043.317-.079.616-.239.927-.321.263-.033.529-.063.791-.095.469-.23.878-.625 1.304-.934.049-.041.065-.15.136-.191.12-.008.25-.027.37-.043.251-.085.557-.203.841-.325.288-.125.496-.457.785-.559.093 0 .186 0 .278 0 .108-.144.218-.275.327-.417.125-.051.25-.092.37-.147.263-.175.458-.487.649-.741.169-.229.42-.344.649-.514.212-.157.261-.396.419-.609.153-.202.497-.208.741-.327 0-.011 0-.032 0-.044.219-.117.208-.292.372-.419.169-.132.343-.115.469-.28.403-.533.534-1.27.927-1.82.163-.223.507-.354.654-.605.109-.205.087-.403.181-.604.152-.333.484-.671.555-1.072.055-.274-.075-1.139-.092-1.45-.006-.133.152-.409.19-.559.169-.73-.354-1.372-.698-1.637.017-.376.311-.518.229-.932-.114-.588-.267-1.071-.556-1.488-.109-.111-.213-.219-.322-.331 0-.203 0-.399 0-.606-.07-.203-.268-.353-.327-.606.251-.125.784-.695.927-.927.143-.229.147-.518.328-.703-.022-.377-.655-1.38-.928-1.495-.426-.174-1.02-.054-1.483-.182-.539-.156-1.831-1.039-2.606-.849-.169.052-.371.225-.507.287-.344.15-.415.215-.759.335-.136.044-.261.245-.402.292-.197.029-.567.063-.774.095-.098.039-.42.041-.529.071-.191.05-1.619-.381-1.767-.466.016-.123.027-.164.049-.238.633-.01 1.271-.032 1.902-.046.214.046.611.09.835 0 .3-.112.491-.449.791-.553.061-.287-.093-.61 0-.933.087-.3.524-.517.42-.984-.219-.93-1.085-1.126-2.001-1.353-.202 0-.398 0-.6 0-.182-.07-.334-.205-.605-.236-.447.299-1.517.141-2.088.327-.579.185-1.331.441-1.909.659-.257.06-.524.12-.786.183-.506.215-1.09.61-1.625.793-.387.132-1.03.214-1.438.469-.949.593-1.963 1.141-2.879 1.771-.198.131-.198.471-.372.607-.169.123-.387.109-.561.229 0 .033 0 .061 0 .096-.339.257-.688.488-.977.791-.039.127-.094.249-.137.376-.141.169-.529.142-.648.324-.354.534-.589 1.086-.927 1.634-.272.439-.698.828-.977 1.262-.381.584-.55 1.238-.84 1.915-.081.195-.305.454-.365.646.011.19.021.377.043.562-.075.199-.343.456-.419.651-.016.268-.033.535-.044.796-.017.05-.125.214-.142.282 0 .233 0 .471 0 .699-.577 1.906-.337 4.761.698 6.298zm-15.513 16.459c-.169-.091-.312-.043-.464-.135-.137-.088-.272-.306-.415-.377-.408-.195-.997-.311-1.438-.42-.174.017-.344.033-.513.05-.19-.05-.495-.143-.703-.191-.306-.016-.611-.026-.922-.043-.327-.09-.96-.257-1.445-.136-.393.086-.84.244-1.156.37-.245.017-.501.027-.741.047-.108.111-.224.218-.326.323-.109 0-.213 0-.329 0-.304.086-.589.278-.746.512-.027 0-.06 0-.088 0-.452-.702-1.401-1.804-2.094-2.239-.195-.061-.403-.117-.6-.182-.093-.069-.071-.189-.136-.284-.114-.154-.475-.341-.654-.415-.393-.166-.916.035-1.391-.102-.114-.021-.268-.152-.377-.18-.321 0-.648 0-.976 0-.12.19-.339.371-.408.607-.317.952.626 1.803.408 2.609-.132.491-.263 1.279-.371 1.815-.037.236.087.448 0 .752-.048.17-.179.361-.228.561 0 .291 0 .588 0 .886-.143.616-.143 1.399-.328 2.05-.044.154-.186.361-.229.508 0 .196 0 .382 0 .567-.016.055-.124.19-.142.233 0 .327 0 .652 0 .982-.114.406-.344.954-.234 1.489-.016.185-.027.376-.049.561.01.137.075.273.104.371.087.398-.137.78-.234 1.074-.071.208-.295.6-.186.79-.071.426-.601.461-.742.981-.113.38-.081 1.081 0 1.451.109.535-.038.998.082 1.486.148.554.426 1.052.563 1.635.075.314-.023.778-.044 1.023-.071.779.055 1.483.185 2.01.082.341-.114.858.044 1.123.033.411.345.521.513.788.458.717.84 1.441 1.717 1.726.284.092.655-.035.977.052.104.021.327.158.465.133.474-.085 1.363-.609 1.537-1.021.212-.51.005-1.14-.093-1.537-.07-.264.081-.331 0-.568-.077-.199-.278-.389-.333-.6.039-.253.065-.499.093-.749-.038-.177-.245-.457-.18-.701.026-.114.196-.191.137-.417-.022-.102-.153-.199-.186-.283 0-.106 0-.214 0-.33-.125-.514-.158-1.086-.323-1.579-.064-.177-.233-.347-.282-.518-.076-.282.12-.497.142-.701.021-.17-.109-.499-.043-.742.037-.174.141-.484.184-.654.04-.19-.07-.283-.092-.376.012-.321.027-.649.043-.971-.086-.332-.08-.758 0-1.123 0-.171 0-.344 0-.512.094-.096.188-.192.279-.282.158-.286.283-.63.42-.886.125-.244.061-.564.277-.703.273-.164.568-.191.834-.365.202-.141.295-.441.464-.614.225-.212.633-.285.792-.553.124-.213.354-1.707.135-2.056 0-.557-.033-1.035.24-1.303.131-.147.35-.203.458-.377.142-.229.212-.504.421-.654.206-.147.527-.196.648-.418.186-.334.108-.781.327-1.074.283-.792 2.022-.632 2.737-.328.043.049.098.092.136.138.224.036.437.069.655.097.081.032.201.191.277.233.175.063.344.126.513.186.42.254.89.671 1.39.843.263.085.492-.008.704-.049.382 0 .77 0 1.15 0 .666-.178 1.053-.625 1.21-1.31.217-.879-.584-1.763-1.02-2.004zm2.743-13.479c.268-.139.943-.687 1.112-.932.136-.199.12-.333.37-.418.06-.525-.196-1.243-.557-1.497-.135-.098-.271-.098-.371-.229-.174-.233-.294-.468-.604-.56-.153-.099-.334-.056-.563-.099-.965-.175-1.516.673-2.225.888-.076 0-.152 0-.234 0-.109.042-.289.214-.414.232-.143-.03-.279-.063-.42-.09-.164.041-.202.261-.322.325-.251.029-.496.065-.746.098-.082.033-.257.154-.371.183-.214.052-.295-.077-.557 0-.18.054-.398.183-.605.234-.517.131-.922.02-1.439.14-.648.154-1.402.176-1.995.139-.263 0-.523 0-.791 0-.267-.071-.595-.237-.839-.322-.182-.039-.366-.065-.553-.096-.223-.117-.484-.352-.74-.469-.219-.096-.394-.084-.611-.186-.126-.06-.267-.227-.415-.28-.163-.063-.25 0-.37-.093-.201-.158-.557-.66-.698-.885-.087-.141-.087-.299-.185-.422-.164-.189-.421-.403-.557-.607-.045-.152-.094-.313-.137-.464-.152-.3-.469-.428-.561-.793-.088-.35.118-.849.185-1.12 0-.215 0-.437 0-.652.038-.111.191-.205.234-.325.108-.354.011-.735.142-1.073.076-.082.152-.152.23-.231.113-.161.098-.319.185-.521.049-.104.186-.22.229-.316.065-.442.126-.878.191-1.314.038-.127.19-.219.229-.325 0-.128 0-.247 0-.374.109-.108.218-.212.322-.326.136-.21.142-.411.382-.516.043-.033.01-.014.086-.047.584 1.086 1.445 1.29 2.694 1.68.339.109.682-.113 1.025 0 .19.077.315.23.463.328.425.283 1.005.572 1.528.703.425.013.84.027 1.254.046.523.124 1.221.112 1.766-.046.132-.033.272-.202.376-.234.322.032.649.065.972.092.114-.026.375-.108.512-.138.294-.069.769.089.977.046.196-.043.371-.273.557-.327.447-.133.823.125 1.211 0 .146-.049.314-.218.463-.281.311-.127.6-.111.928-.234.189-.063.402-.216.599-.281.284-.084.485-.034.747-.136.54-.207 1.118-.521 1.668-.698.301-.049.59-.092.884-.142.224-.087.469-.322.698-.417.283-.122.577-.041.884-.145.228-.077.452-.262.697-.327.245-.011.495-.021.742-.043.076-.074.152-.158.233-.235.328-.216.807-.226 1.064-.513.017 0 .026 0 .049 0 .206-.277.545-1.166.648-1.54.11-.39.021-.657.142-1.022.077-.24.312-.82.186-1.219-.06-.172-.228-.248-.327-.367-.076-.102.011-.252-.043-.375-.094-.176-.36-.166-.514-.283-.086-.068-.07-.186-.141-.28-.098-.125-.333-.175-.464-.275-.109-.123-.218-.248-.328-.376-.206-.135-.55-.096-.741-.238-.393-.157-.37-.687-.604-1.017-.257-.376-.654-.438-.971-.706-.191-.152-.158-.364-.272-.603-.143-.262-.513-.454-.748-.608-.037-.417-.093-.735-.283-1.074-.343-.082-.713-.24-1.068-.322-.502-.125-1.178.224-1.669 0-.142-.139-.283-.283-.42-.424-.136-.029-.277-.06-.414-.088-.032-.049-.065-.099-.099-.145-.527-.274-1.574-.244-2.181-.421-.3-.087-.47.138-.648.185-.404.021-.808.037-1.211.051-.169.041-.37.09-.643.09-.143-.104-.279-.212-.421-.325-.131-.181-.113-.416-.235-.603-.223-.37-.741-.609-1.346-.609-.294.191-.735.075-1.069.231-.485.235-.807.559-1.205.796-.158.09-.316.086-.463.185-.208.14-.36.429-.563.565-.151.096-.36.082-.506.184-.143.17-.278.346-.42.509-.317.219-.66.298-.972.518-.277.187-.436.551-.703.751-.256.19-.507.278-.785.46-.437.29-.89.794-1.21 1.211-.061.082-.153.076-.23.142-.211.163-.565.583-.746.794-.327.415-.627.983-.84 1.488-.037.221-.086.444-.136.657-.093.12-.289.128-.371.281-.262.512-.366 1.251-.649 1.726-.19.315-.469.616-.649.933-.087.311-.189.621-.283.929-.054.14-.218.259-.271.377-.192.394-.197.728-.377 1.163-.06.164-.225.41-.273.563-.163.488-.06.992-.239 1.445-.075.213-.295.463-.365.703-.126.426-.027.774-.142 1.21-.044.172-.201.415-.229.564.028.2.06.401.093.6-.087.396-.142 1.287 0 1.77.071.268.295.497.415.709.093.147.06.296.136.458.083.191.272.355.376.516.158.254.12.622.279.843.06.082.151.076.234.136.186.143.79.788.928.981.156.222.174.513.32.748.186.28.551.395.747.654.12.161.18.409.322.56.125.127.332.165.463.277.099.111.191.215.278.33.19.108.338.054.563.139.189.074.326.254.556.33.19.01.371.023.562.04.108.041.294.184.415.238.194.079.375.046.555.139.142.067.263.259.415.325.131.054.272.013.377.092.146.111.31.268.512.327.305.099.692.124.928.188.311 0 .621 0 .926 0 1.217.28 2.95.15 4.041-.095.218 0 .437 0 .648 0 1.54-.397 3.133-.775 4.414-1.451zm20.153 15.346c.263-.873-.271-1.436-.697-1.776-.061-.04-.142-.026-.186-.091-.075-.113-.021-.264-.093-.364-.206-.333-.632-.234-.932-.471-.147-.124-.295-.32-.459-.417-.32-.191-2.033-.544-2.464-.427-.087.022-.284.191-.376.191-.12 0-.366-.114-.459-.144-.163-.039-.419.029-.512.046-.534.119-1.042.021-1.391-.137.076-.441.437-.807.556-1.215 0-.197 0-.405 0-.604.066-.271.213-.548.279-.793.011-.282.032-.563.043-.847.07-.288.256-1.265.055-1.581-.055-.293-.104-.092-.19-.231 0-.154 0-.312 0-.469-.049-.204-.071-.717-.187-.932-.108-.199-.426-.287-.556-.467-.109-.146-.093-.304-.191-.467-.207-.362-1.75-1.065-2.503-.886-.686.152-1.242.363-2.045.42-.076.409-.223.852-.326 1.304-.072.332.157.61.093.845-.066.245-.376.573-.458.834-.147.431-.012.867-.143 1.306-.06.205-.267.333-.326.516-.154.45-.033.998-.044 1.448-.005.193-.339.494-.42.651-.115.224 0 .458-.093.748-.082.244-.263.559-.327.834-.583.101-.704-.35-1.113-.508-1.171-.475-2.835-.49-4.089-.093-.158.043-.339.011-.463.093-.148.05-.181.074-.234.229-.039.048-.012.013-.045.098.153.169.311.338.47.513.283.196.681.376.878.654.151.224.218.437.37.646.142.128.278.254.421.373.07.117-.017.283.043.426 0 0 .457.502.463.506.061.045.645.421.655.426.354.139.688.082.976.278.152.167.306.343.463.519.021.445-.168.725-.277 1.16-.016.295-.033.591-.049.884-.072.181-.376.36-.371.611 0 .185.239.37.19.605-.055.229-.224.556-.284.794.018.4.033.809.045 1.213-.403 1.412-.403 2.978-.785 4.378.033.344.06.693.093 1.033-.06.228-.212.568-.285.837 0 .312 0 .625 0 .933-.049.148-.157.251-.184.469-.011.014-.028.027-.039.05-.187.006-.452.027-.562-.05-.032 0-.06 0-.092 0 0 .412.125.677.185.979.05.26-.163.303-.093.564.049.17.267.352.322.507.12.363-.033 1.852-.088 2.143-.06.298.038.669.088.887.049.362.092.717.142 1.077.126.398.371.774.513 1.117.119.293.142.577.371.748.32.245 1.444 1.07 2.045.938.163-.044.326-.177.463-.24.283-.115.584-.18.742-.42.212-.315.643-2.077.506-2.704-.08-.403-.283-1.479-.136-2.004.056-.194.234-.417.278-.608.08-.327-.24-.49-.143-.84.077-.248.294-.621.377-.837.016-.231.033-.467.044-.703.026-.106.114-.319.142-.418 0-.233 0-.468 0-.697.081-.382.12-.856.043-1.357-.011-.085-.093-.307-.043-.465.038-.111.196-.255.234-.375 0-.181 0-.372 0-.563.104-.311.027-.729.137-1.114.026-.102.157-.276.186-.371.082-.265-.082-.551-.093-.701-.022-.305.168-.714.229-.933.07-.245-.104-.382 0-.653.049-.049.098-.097.142-.14.016-.19.032-.373.049-.562.038-.134.186-.324.229-.467.017-.168.038-.344.044-.512.065-.212.266-.393.326-.604 0-.235 0-.467 0-.702.055-.193.219-.414.278-.607.169-.494.201-1.156.42-1.587.093-.093.18-.183.284-.276.283-.008.512-.204.735-.141.132.035.388.193.513.234.311 0 .622 0 .927 0 .327.09.649.271 1.069.09.212-.087.508-.464.79-.42.055.011.192.131.234.141.459-.016.927-.034 1.391-.045.322.084 1.331.387 1.815.234.039-.014.148-.129.182-.139.152-.016.311-.033.463-.051.099-.037.18-.195.283-.23.246-.011.496-.036.742-.049.349-.125.676-.666.79-1.025zm22.712.348c-.241-.973-.393-1.021-.977-1.59-.137-.13-.186-.396-.32-.515-.258-.093-.503-.186-.748-.278-.201-.147-.272-.529-.464-.7-.567-.505-1.304-.949-1.952-1.354-.54-.33-1.642-.279-2.273-.514-.229-.087-.225-.261-.377-.419-.092-.097-.665-.465-.785-.514-.556-.087-1.112-.186-1.674-.283-.393-.136-.812-.475-1.205-.6-.604-.202-2.443.159-2.786.419-.153.119-.148.415-.278.558-.104.108-.3.151-.376.28-.027.175-.06.344-.088.516-.103.251-.327.33-.376.698-.044 0-.093 0-.137 0-.201.411-.539.679-.79 1.024-.546.764-1.054 1.622-1.396 2.568 0 .234 0 .469 0 .703-.06.184-.306.42-.37.602 0 .127 0 .249 0 .375-.088.28-.245.673-.327 1.027-.011.42-.026.838-.038 1.258-.049.217-.138.781-.049 1.071.027.095.158.198.185.281.093.271-.026.528.093.746.093.153.366.263.507.376.147.104.394.489.469.649.104.216-.07.376 0 .605.055.186.349.627.508.746.077.056.181.028.235.094.124.147.168.398.32.513 1.222.884 2.988 1.145 4.231 2.006.12.173.251.338.372.513.256.262.527.388.833.611.169.114.158.343.278.511.082.11.262.11.377.184.916.543-.339 2.095-.563 2.428-.224.34-.305.733-.551 1.027-.196.219-.551.305-.796.464-.229.157-.458.425-.698.566-.218.073-.43.149-.649.224-.064.065-.12.132-.18.191-.098 0-.19 0-.282 0-.41.105-.917.141-1.489.141-.278 0-.557 0-.828 0-.202.053-.312.143-.611.143.039-.698.692-.984.469-1.963-.06-.251-.213-.437-.282-.608-.012-.149-.028-.308-.05-.463-.087-.192-.333-.265-.465-.418-.168-.223-.364-.566-.55-.749-.272-.254-.698-.313-1.021-.517-.262-.151-.534-.417-.839-.513-.322-.089-.529-.01-.84 0-.104.082-.213.159-.322.238-.294.409-.354 1.094-.932 1.21-.094.052-.426-.092-.649-.092-.065.072-.114.105-.229.139-.022.437-.224.638-.327.979-.147.485-.119.933-.279 1.447-.141.473-.375 1.117-.512 1.587-.071.254.076.517.092.654-.026.277-.06.556-.092.835.021.07.17.18.186.233.098.254-.115.396 0 .603.049.102.212.115.283.191.764.916 1.598.766 2.967.466.715-.159 1.271.163 1.718.277.327.039.654.066.976.1.404.134.535.583.835.793.201.128.475.106.653.234.082.101.154.215.236.322.25.266.795.679 1.16.792.152-.016.306-.032.457-.044.241.044 1.146.209 1.49.09.344-.11.502-.514.834-.647.316-.052.621-.096.932-.14.246-.104.486-.379.748-.469.135-.019.271-.032.414-.046.169-.06 1.363-.688 1.439-.8.093-.13.049-.311.136-.463.143-.103.278-.219.42-.325.344-.495.578-1.021.927-1.493.29-.384.803-.559.977-1.071.143-.406.033-1.058-.044-1.402-.136-.61-.027-1.133-.233-1.676-.06-.164-.257-.234-.322-.379-.017-.183-.033-.366-.044-.563-.071-.186-.276-.305-.382-.457-.092-.159-.037-.336-.136-.519-.104-.094-.219-.184-.322-.274-.087-.173.076-.2 0-.38-.065-.041-.125-.089-.185-.136-.087-.132-.146-.398-.186-.563-.153-.646.18-1.275-.093-1.723-.277-.45-.716-.669-1.075-1.028-.294-.292-.484-.679-.833-.933-.18-.136-.437-.139-.595-.28-.082-.06-.076-.213-.143-.278-.223-.193-.626-.18-.888-.327-.164-.09-.306-.322-.464-.42-.186-.114-.381-.093-.6-.19-.332-.131-.704-.316-1.026-.508-.294-.181-.561-.47-.833-.654-.125-.044-.246-.093-.371-.139-.186-.145-.267-.423-.464-.562.011-1.087.235-2.043.464-2.893.119-.453-.115-1.187 0-1.544.147-.469.595-.813.834-1.202.186-.302.229-.685.463-.938.191-.212.628-.234.885-.372.278-.153.779-.646 1.019-.89.147 0 .278 0 .421 0 .338.245.092.851.185 1.262.071.307.218.832.416 1.028.174.108.343.213.511.327.099.131.05.333.187.42.179.109.393.068.562.186.151.17.305.339.463.508.142.101.328.089.464.195.103.076.151.26.229.371.218.203.437.403.653.605.093.125.152.376.278.462.252.19.611.127.928.235.075.022.201.164.277.191.578.19 1.211.093 1.767.044.147-.018.393.095.601.043 1.434-.332 2.355-.365 2.737-1.771.058-.176-.018-.492-.04-.596zm25.677-38.181c-.065-.128-.245-.278-.322-.415-.13-.223-.07-.482-.19-.74-.18-.41-1.051-1.293-1.434-1.5-.268-.147-.502-.077-.84-.186-.207-.06-.475-.284-.648-.417-.158.005-.234.019-.321.092-.214.14-.131.243-.235.511-.049.13-.234.262-.283.37-.082.229.109.518.146.657-.016.417-.037.837-.049 1.257-.027.096-.158.243-.191.327.022.142.033.281.05.42-.054.278-.295.655-.37.933-.033.298-.065.597-.094.886-.107.362-.354.784-.463 1.123-.121.384-.038 1.001-.186 1.35-.027.061-.153.175-.186.235-.152.295-.283.709-.37 1.027-.017.248-.032.499-.05.745-.032.103-.197.215-.229.329 0 .216 0 .431 0 .651-.224.786-.66 1.56-.889 2.377-.017.312-.022.623-.043.936-.104.407-.121.992-.279 1.395-.076.201-.3.359-.371.562-.016.141-.033.282-.043.419-.065.121-.872 1.104-.976 1.17-.252.145-.442.114-.747.232-.022.011-.628.708-.649.747-.251.463.272.84.05 1.303-.169.172-.344.343-.514.512-.044.156-.093.317-.137.47-.113.163-.403.196-.512.373-.125.202-.056.483-.186.652-.125.163-.437.161-.605.281-.092.105-.186.215-.278.328-.349.237-.703.345-1.117.514-.115.049-.267.229-.365.281-.234.011-.47.033-.704.045-.533.17-1.733.235-2.415.094-.229 0-.458 0-.692 0-.294-.073-.578-.244-.84-.33-.295-.099-.562-.047-.791-.186-.219-.138-.376-.373-.648-.466-.027-.354-.158-.753-.087-1.214.016-.138.098-.443.043-.65-.061-.271-.252-.759-.136-1.121.011-.041.131-.15.136-.186 0-.139 0-.281 0-.423.087-.243.365-.507.47-.84.08-.278-.148-.698-.049-.976.037-.12.223-.336.271-.469.163-.377.125-.756.283-1.162.028-.082.153-.204.187-.277.065-.426.125-.846.185-1.269.119-.357.344-.87.464-1.257 0-.136 0-.277 0-.417.065-.186.268-.355.327-.564.016-.199.027-.401.043-.604.076-.077.153-.156.234-.229.033-.208.066-.409.093-.61.125-.254.464-.366.606-.742.016-.142.026-.281.043-.423.12-.403.316-.911.42-1.353.104-.444-.191-1.307 0-1.633.038-.403.665-1.102.834-1.538.017-.204.033-.409.049-.61.365-1.644-1.216-2.252-2.229-2.705-.229-.101-.502-.101-.698-.234-.868-.006-.949 1.216-1.111 1.921 0 .212 0 .431 0 .646-.127.482-.481 1.006-.744 1.404-.06.06-.124.116-.189.18-.18.447-.185.861-.371 1.311-.382.925-.78 1.78-1.112 2.798-.049.158-.229.248-.283.376-.108.26.026.561-.087.788-.082.164-.312.347-.377.516 0 .087 0 .186 0 .281-.076.281-.235.599-.322.837-.016.128-.032.253-.043.373-.082.169-.305.385-.375.56-.019.157-.029.313-.045.472-.049.174-.186.414-.234.553 0 .126 0 .254 0 .374-.049.19-.219.398-.272.564-.017.216-.039.433-.055.653-.017.086-.119.281-.137.371.018.166.033.341.044.51-.104.486-.387 1.2-.224 1.917.18.823.229 1.672.414 2.517.017.341.033.688.044 1.025.049.05.094.095.143.142 0 .185 0 .376 0 .563.125.451.431.947.6 1.346.064.144.021.245.098.378.263.249.523.497.785.742.126.142.25.282.371.417.523.313 1.244.303 1.768.613.349.198.681.619 1.067.788.355.158.759.245 1.113.327.234.016.468.032.698.048.495.146.921.345 1.438.465.257.066.813.016.928 0 .501 0 .992 0 1.488 0 .463-.099 1.052-.213 1.489-.322.528-.143.981.041 1.482-.095.382-.102.878-.232 1.211-.423.055-.074.119-.15.185-.229.165-.11.458-.109.557-.279 0-.059 0-.124 0-.187.093-.171.327-.265.415-.469.061-.128.021-.26.098-.372.098-.16.359-.246.414-.466.027-.084.012-.746-.044-.888-.021-.056-.168-.169-.185-.235-.022-.261-.032-.528-.05-.793-.043-.096-.195-.145-.233-.276-.131-.453.185-.653.233-.938-.032-.261-.06-.528-.093-.795.654.041.747.487 1.211.659.49.188 2.133.098 2.503-.137.267-.172.3-.419.463-.706.11-.188.421-.352.513-.559.018-.137.033-.277.044-.415.044-.107.196-.223.234-.329.022-.221.033-.438.05-.654.017-.09.114-.287.142-.371-.022-.252-.033-.502-.05-.748.05-.211.174-.525.23-.746.086-.33-.012-.57.093-.837.146-.374.475-.655.599-1.027.158-.447.186-.96.284-1.401 0-.173 0-.336 0-.514.131-.461.388-.962.513-1.398.157-.562-.043-1.215.135-1.729.071-.186.307-.364.372-.559 0-.437 0-.871 0-1.301.142-.504.731-1.806.653-2.244-.154-.869.461-2.011.041-2.851z" fill="#ed1a3b"/></svg>