<svg enable-background="new 0 0 600 120" height="120" viewBox="0 0 600 120" width="600" xmlns="http://www.w3.org/2000/svg"><path d="m265.651 78.238h59.971v8.379h-68.357v-18.361h8.387v9.982zm-28.349-4.365h-60.803v8.436h60.803v4.309h8.379v-51.475h-8.379zm-190.502-16.615c0 10.992-8.909 19.898-19.899 19.898-10.989 0-19.901-8.906-19.901-19.898 0-10.986 8.911-19.895 19.9-19.895 10.991.001 19.9 8.909 19.9 19.895zm-8.828 0c0-6.117-4.954-11.072-11.071-11.072-6.114 0-11.072 4.955-11.072 11.072 0 6.119 4.958 11.078 11.072 11.078 6.117 0 11.071-4.959 11.071-11.078zm38.092 29.359h8.385v-51.474h-8.385zm-14.796-43.089h-11.589v8.381h11.589v9.865h-11.589v8.381h11.589v16.463h8.384v-51.475h-8.384zm252.246 26.658h8.387v-35.043h-8.387v10.846h-12.577v8.387h12.577zm-52.606-6.612l15.896-13.807 15.894 13.807 5.499-6.328-13.436-11.672h11.581v-8.389h-39.077v8.389h11.582l-13.438 11.672zm-81.811-12.167c0-9.052 7.335-16.387 16.387-16.387 9.054 0 16.392 7.335 16.392 16.387s-7.338 16.386-16.392 16.386c-9.052 0-16.387-7.335-16.387-16.386zm8.812 0c0 4.184 3.394 7.575 7.575 7.575 4.184 0 7.578-3.392 7.578-7.575s-3.395-7.582-7.578-7.582c-4.182 0-7.575 3.398-7.575 7.582zm201.926 32.427c0 9.799-7.943 17.738-17.74 17.738-9.799 0-17.738-7.939-17.738-17.738 0-9.795 7.939-17.738 17.738-17.738 9.797 0 17.74 7.943 17.74 17.738zm-8.824 0c0-4.926-3.992-8.918-8.916-8.918-4.925 0-8.916 3.992-8.916 8.918s3.991 8.918 8.916 8.918c4.924 0 8.916-3.992 8.916-8.918zm-10.889-30.962h-28.539v-7.346h28.539v-8.377h-36.922v24.101h36.922zm25.228-6.635v-11.094h-8.385v28.382h8.385v-8.904h12.577v-8.385h-12.577zm-263.729-18.129l22.793 13.21 4.188-7.261-26.981-15.63-26.983 15.63 4.191 7.261zm4.19 27.544v-3.353h29.991v-8.086h-68.361v8.086h29.989v3.353h-29.989v8.086h59.98v3.352h-59.98v19.527h68.361v-8.09h-59.982v-3.35h59.982v-5.52-14.005z"/><path d="m500.344 32.86c-.093-.303-.409-.922-.278-1.398.07-.257.251-.589.327-.887.142-.544-.033-1.15.186-1.633.141-.321.234-.654.321-.979.033-.218.066-.437.094-.654.054-.032.098-.064.141-.092.131-.198.187-.421.328-.612.136-.119.277-.239.413-.376.191-.267.213-.572.372-.877.119-.229.371-.284.512-.469.289-.385.415-.856.698-1.26.186-.265.529-.412.791-.605.229-.175.688-.879.883-.979.12-.019.245-.035.371-.052.426-.171.817-.525 1.249-.694.131-.021.25-.03.371-.053.082-.071.158-.15.239-.229.317-.213.644-.409 1.02-.557.218-.093.437-.008.692-.101.076-.025.175-.15.235-.186.524-.27 1.063-.493 1.531-.791.246-.155.579-.183.792-.374.092.02.087.018.137.05.282.142.91 1.592 1.16 1.958.229.332.604.55.928.796.244.18.451.472.697.654.19.126.299.119.419.322.317-.015.612-.205.791-.374.066 0 .121 0 .187 0-.104.575.354.886.229 1.354-.045.169-.181.365-.229.563-.137.566.076 1.112-.094 1.628-.06.187-.223.37-.283.607.038.324.065.655.094.976-.104.523-.164 1.004-.273 1.495 0 .217 0 .436 0 .654-.061.262-.088.643-.186.935-.049.139-.207.265-.277.373-.116.295-.219.589-.328.884-.064.079-.218.104-.283.186-.104.15-.153.333-.272.469-.077.046-.153.099-.229.142-.164.191-.229.415-.425.557-.077.065-.201.073-.278.141-.044.044-.033.151-.093.187-.18.125-.446.093-.601.231-.064.063-.064.189-.142.237-.294.169-.637.163-.932.324-.605.338-1.287.8-1.946 1.077-.279.044-.557.092-.835.137-.186.076-.485.248-.649.327-.283.125-.539.058-.795.185-.154.088-.295.252-.416.283-.489-.012-.986-.034-1.482-.045-1.363.003-2.684-.105-3.626-.657-.186-.109-1.183-1.483-1.254-1.724-.117-.402.129-.668-.002-1.074zm-27.908-9.565c.431.106.981.322 1.396.417.475.129.846-.106 1.299-.133.834-.06 1.756.087 2.509-.094.61-.155 1.204.148 1.81 0 .813-.2 1.799-.515 2.552-.751.278.023.556.034.841.049.267-.076.424-.347.691-.42.169 0 .344 0 .514 0 .637-.21 1.334-.589 2.038-.742.114.01.219.027.327.044.306-.056.764-.229.884-.464.196-.292.271-.82.277-1.265-.136-.147-.087-.252-.37-.278-.109.07-.376.054-.557.043-.044-.081-.061-.07-.093-.182.241-.333-.054-1.334-.283-1.547-.219-.204-.557-.217-.742-.458-.196-.261-.866-1.012-1.112-1.169-.365-.237-.763-.313-1.161-.513-.157-.076-.315-.271-.463-.324-.17-.011-.345-.038-.513-.049-.709-.249-1.375-.698-2.132-.889-.376 0-.747 0-1.118 0-.224.163-.552.185-.742.382-.256.24-.431.599-.698.834-.168.152-.387.229-.562.373-.239.208-.332.595-.6.796-.202.14-.578.286-.791.366-.186.035-.365.067-.555.095-.415.237-.529.764-.835 1.123-.109.12-.327.088-.464.186-.098.063-.764.821-.84.933-.142.231.093.403-.049.695-.12.129-.245.253-.371.378 0 .219 0 .437 0 .655-.207.633-1.014.979-1.063 1.773.033 0 .06 0 .093 0 .228.156.565.058.883.136zm-33.253 87.559c-.271-.176-.32-.557-.556-.742-.18-.148-.42-.191-.61-.332-.387-.299-.715-.77-1.02-1.168-.092-.129-.234-.137-.37-.23-.093-.068-.11-.197-.187-.281-.174-.197-.387-.303-.604-.471-.256-.193-.398-.52-.605-.793-.153-.203-.419-.283-.595-.459-.137-.129-.098-.344-.191-.514-.113-.197-.354-.365-.463-.563-.055-.092-.088-.199-.125-.309v6.477h6.696c-.312-.158-.605-.326-.905-.473-.154-.051-.311-.094-.465-.142zm-3.805-77.246c.125-.228.402-.399.551-.611.119-.158.125-.344.233-.51.294-.434.755-.852 1.021-1.307.168-.285.157-.495.284-.843.022-.067.163-.166.179-.23.038-.094-.043-.312-.043-.325.032 0 .061 0 .092 0 .034-.111.066-.221.094-.33.027 0 .061 0 .092 0 0-.072 0-.152 0-.229.055-.152.197-.382.234-.563.044-.201-.098-.452-.135-.604-.115-.438.113-.788.228-1.026.033 0 .066 0 .089 0 0 .046 0 .09 0 .137.431-.05.812.077 1.166.186 2.111.638 2.001 1.984 2.504 4.154.184.775-.197 1.489-.23 2.192.016.017.033.033.049.049.295-.057.988-.157 1.348-.049.031.012.147.131.186.141.185-.031.369-.064.562-.092.441-.027.922.158 1.292.092.027-.01.146-.086.191-.092.479-.084.67.257 1.156.137.735-.183 1.417-.698 2-1.069.284-.185.616-.206.928-.375.321-.181.527-.663.84-.89.965-.708 2.132-1.748 2.316-3.218-.49-.316-.79-.88-1.253-1.213-.284-.199-.628-.27-.928-.467-.082-.054-.175-.19-.278-.228-.207-.079-.354-.047-.513-.143-.229-.143-.381-.419-.604-.562-.137-.043-.278-.093-.42-.145-.114-.095-.163-.303-.272-.417-.071-.066-.214-.07-.284-.139-.136-.139-.157-.354-.278-.516-.081-.104-.262-.104-.37-.18-.213-.164-.305-.485-.469-.703-.099-.135-.278-.17-.414-.282-.105-.083-.126-.286-.229-.37-.283-.236-.61-.418-.841-.7-.075-.099-.064-.225-.135-.327-.29-.403-.65-.78-.884-1.258-.152-.308-.147-.58-.327-.842-.306-.457-.671-.972-1.063-1.348-.229-.221-.551-.42-.704-.703-.207-.408-.049-.812-.186-1.352-.321-1.337.24-3.055.748-4.061.146-.291.114-.612.277-.886.082-.131.229-.174.327-.278.185-.212.225-.551.415-.749.152-.15.403-.185.557-.33.109-.099.151-.284.283-.366.387-.271.855-.365 1.254-.61.104-.065.18-.245.278-.324.093-.079.229-.073.321-.145.066-.044.131-.11.191-.161h-12.945v26.294c.409-.223.855-.461 1.194-.705.167-.128.211-.32.325-.509zm31.851 59.288c.458-.359 1.122-.426 1.722-.193.247.1.547.33.977.236.388-.078.965.02 1.44-.098.921-.207 1.794-.033 2.645.191.447 0 .9 0 1.346 0 1.392 0 2.379-.104 3.393-.377.055-.299.316-.523.42-.791.104-.273.088-.475.229-.697.081-.115.261-.141.32-.279.24-.516.224-1.242.378-1.818.097-.373.44-.84.327-1.35-.23-.986-.813-1.068-1.489-1.545-.093-.139-.186-.281-.278-.418-.289-.223-.622-.342-.932-.561-.087-.098-.181-.186-.279-.277-.272-.016-.55-.033-.833-.051-.583-.072-1.174-.154-1.762-.234-.12.076-.3.006-.47.047-.403.105-.84.254-1.16.471-.138.154-.279.311-.415.471-.541.387-1.13.672-1.626 1.111-.06.061-.043.16-.097.229-.197.197-.399.383-.601.563-.088.121-.092.252-.19.377-.131.109-.273.219-.409.328-.114.189-.093.369-.191.561-.125.24-.403.393-.555.6-.109.15-.127.313-.23.471-.108.145-.322.219-.469.324-.24.188-1.396 1.512-1.482 1.775 0 .246 0 .498 0 .742.117.093.079.148.271.192zm83.042.459c.371-.111.789.078 1.068-.094.508-.309.906-1.162 1.249-1.676.076-.102.256-.182.326-.275.235-.332.153-1.85.049-2.24-.016-.264-.031-.531-.049-.793-.104-.354-.364-.676-.507-.984-.098-.197-.049-.365-.141-.559-.258-.535-.982-1.129-1.811-1.111-.535.354-1.713-.057-2.274.271-.507.301-1.063.934-1.347 1.451-.186.324-.219.668-.426.977-.256.408-.747.611-1.156.887-.31.207-.545.518-.784.795-.06.063-.181.076-.235.139-.174.195-.093.6-.185.885-.131.377-.383.859-.513 1.215-.087.225-.038.414-.143.6-.098.18-.229.205-.277.475 1.576.901 5.281.639 7.156.037zm40.508-84.823v102.937h-24.368c.136-.371.136-.85.299-1.219.181-.408.535-.641.742-.984.098-.25.187-.5.278-.746.409-.691.545-1.863.741-2.754.065-.275-.049-.59-.086-.793-.12-.568.054-1.242.136-1.629.038-.197-.066-.289-.093-.375-.072-.266.082-1.188.142-1.445.098-.463-.214-.725-.142-1.078.164-.787.441-1.635.648-2.33.032-.461.06-.928.092-1.398.038-.096.197-.172.235-.279.065-.182-.026-.535-.049-.65-.032-.191.065-.377.088-.518.049-.191-.061-.416-.088-.557-.044-.225.098-1.23.19-1.396.061-.143.263-.291.322-.475 0-.139 0-.281 0-.414.07-.295.213-.605.371-.842.146-.205.393-.223.604-.371.087-.063.269-.377.322-.465.092-.285.19-.564.278-.842.141-.375.567-.301.976-.42.332-.098.698-.246 1.021-.324.495.014.991.027 1.488.045.496-.141 1.052-.75 1.858-.512.557.158.851.719 1.298.977.438.25 1.118.25 1.538.512.463.295.911.789 1.386 1.074.267.158.633.213.839.422.175.172.295.436.513.561.153.029.311.063.463.086.235.105.524.34.791.426.698.219 2.236-.256 2.509-.512.142-.174.398-.852.272-1.215-.027-.105-.19-.215-.224-.328-.126-.385.028-.848-.142-1.166-.131-.238-.414-.432-.557-.646-.146-.211-.18-.457-.326-.656-.137-.176-.383-.195-.557-.328-.256-.197-.523-.473-.84-.609-.426-.18-.807-.16-1.254-.33-.36-.123-.671-.455-1.02-.602-.197-.076-.458.023-.698-.049-.284-.08-.513-.324-.791-.418-.638-.209-1.745-.152-2.552-.137-.25.166-.703.045-1.02.137-.191.057-.414.223-.605.281-.382.119-.6.119-.977.23-.436.141-.845.438-1.26.611-.338.078-.676.156-1.014.232-.306.141-.595.412-.883.559-.234.127-.48.098-.693.234-.365.234-.752.633-1.073.93-.011 0-.033 0-.044 0-.049-.416-.093-.834-.142-1.252-.044-.141-.229-.25-.283-.375-.011-.129-.028-.25-.039-.383-.229-.506-.921-.643-1.488-.834-.327-.109-.982-.256-1.304 0-.387.316-.088.9-.229 1.494-.157.666-.25 1.541-.419 2.238-.109.488.021.902-.094 1.354-.098.395-.343.781-.457 1.113 0 .115 0 .219 0 .328-.082.262-.234.688-.328.934-.032.24-.06.469-.092.703-.092.219-.306.469-.372.697 0 .156 0 .316 0 .475-.141.604-.2 1.346-.332 1.906 0 .172 0 .346 0 .516-.042.189-.18.426-.229.607-.082.297.005.543-.093.791-.054.148-.219.34-.278.467-.026.174-.06.34-.093.518-.054.107-.229.244-.277.373-.049.209-.094.434-.143.654-.086.172-.306.4-.37.6-.142.422-.011.805-.229 1.121-.214.311-.661.572-.928.834.005.572.295.512.415.889 0 .361 0 .715 0 1.074.027.088.158.229.185.326.158.564-.092 1.27-.185 1.688-.104.479.016 1.17.093 1.531 0 .295 0 .594 0 .891.135.398.593.641.791.975.042.08.097.16.146.244h-11.869c.174-.584-.269-1.238-.16-1.83.029-.168-.098-.439-.141-.65-.076-.334.114-.783 0-.979-.207-.424-1.604-.33-2.187-.182-1.134.271-2.198.646-3.294.926-.523.137-1.14-.186-1.531-.279-.137 0-.279 0-.415 0-.393-.117-1.123-.465-1.439-.699-.169-.129-.197-.396-.327-.563-.021-.025-.539-.377-.605-.424-.507-.354-1.123-.479-1.347-1.111-.187-.52.229-1.385.229-2.053 0-.682-.151-1.66.055-2.291.065-.221.208-.553.272-.836.027-.311.066-.625.098-.934.089-.299.317-.578.415-.889.153-.473.187-.844.366-1.305.19-.439.469-.826.653-1.303.523-.094.644.244 1.025.369.315.107.584.064.884.191.861.352 2.028.914 3.107 1.025.235.025.541-.229.742-.283.562-.15.9.209 1.445.094.484-.113 1.26.039 1.854-.094.469-.102.954-.271 1.348-.369.528-.146 1.008.262 1.396.369.501.139 1.945.117 2.459 0 .245 0 .497 0 .742 0 .735-.199 1.733-.496 2.278-.934.202-.166.311-.596.551-.793.033-.543-.267-1.461-.648-1.68-.441-.25-1.106-.127-1.575-.375-.454-.234-.665-.738-.972-1.119.038-.396.398-.525.273-1.074-.056-.244-.284-1.117-.187-1.445.034-.105.197-.258.235-.365.108-.338.037-1.168-.142-1.404-.132-.318-.376-.186-.692-.324-.453-.195-.741-.736-1.211-.895.044-.492.388-1.012.136-1.488-.288-.555-1.145-.727-1.669-1.07-.255-.168-.201-.445-.371-.695-.342-.508-1.635-.859-2.508-.84-.157.113-.392.061-.604.135-.19.068-.37.271-.557.328-.37 0-.746 0-1.112 0-.17.037-.377.152-.513.186-.288.07-.446-.098-.604-.143-.409-.109-1.69.316-1.904.473-.348.25-.779.758-1.019 1.115-.093.137-.104.277-.234.373-.312.221-.441.449-.698.701-.186.189-.497.291-.649.51-.125.188-.157.381-.278.561-.24.348-.647.625-.883.984-.257.383-.3.865-.562 1.258-.257.398-.644.867-.878 1.256-.093.283-.186.563-.279.846-.217.359-.523.803-.697 1.205-.098.24-.049.486-.136.748-.066.186-.218.375-.283.561-.126.389-.094.688-.229 1.076-.038.109-.191.238-.234.322-.153.293-.088.629-.229.934-.202.434-.508.994-.649 1.492-.017.287-.038.563-.049.844-.044.125-.147.324-.187.463-.031.258-.064.502-.092.748-.109.344-.316.691-.42 1.074-.104.387.092.646-.043 1.029-.115.307-.355.715-.471 1.07-.169.545-.151 1.656-.042 2.191.108.502-.077 1.021.093 1.445.049.119.218.223.277.322.464.83.884 1.572 1.396 2.338.271.408.719.676 1.112.977.141.109.181.355.327.473.261.193.653.463 1.024.705h-14.286c.028-.107.05-.201.071-.289.017-.436.033-.867.044-1.307.157-.643.447-1.213.61-1.912.104-.475-.295-.826-.142-1.447.104-.43.409-.555.557-.891.026-.168.06-.338.093-.51.076-.193.251-.422.322-.607.098-.262.13-.584.189-.838-.021-.172-.032-.34-.049-.51.027-.146.153-.371.181-.512.065-.271-.132-.41-.181-.563-.104-.346.049-1.395.098-1.729-.049-.387-.098-.773-.146-1.168.164-.953.213-1.971.514-2.75.18-.471-.263-.697-.143-1.168.125-.432.475-.906.605-1.305.064-.449.131-.898.191-1.354.049-.141.229-.283.277-.418.082-.221.021-.352.136-.512.383-.541 2.116-.967 2.972-1.119.159-.033.279.066.371.094.284.07 1.074.094 1.396 0 .169-.051.316-.227.463-.279.153-.021.312-.033.463-.049.47-.205.722-.748 1.119-1.021-.006-1.395-1.238-2.402-2.23-2.801-.158-.016-.311-.035-.463-.049-.557-.15-1.789-.49-1.953-.982-.082-.146.333-1.352.42-1.58.186-.52.381-1.473.18-2.15-.043-.154-.185-.354-.229-.514-.131-.467-.12-.918-.42-1.209-.07-.021-.152-.033-.229-.049-.459-.271-.813-.779-1.396-.932-.539-.143-1.232.381-1.674 0-.541 0-.856.322-.976.748-.229.375.245 1.297.054 1.863-.076.201-.223.504-.283.746 0 .246 0 .498 0 .748-.077.246-.283.566-.365.834-.033.219-.07.441-.099.654-.082.234-.245.533-.321.744-.021.129-.033.254-.049.379-.11.24-.382.42-.514.699-.604.135-1.755.447-2.459.234-.256-.078-.518-.295-.742-.379-.158-.012-.311-.025-.469-.045-.31-.105-.605-.395-.927-.51-.32-.029-.647-.059-.976-.098-.322-.082-.91-.303-1.254-.186-.18.066-.311.273-.464.377.045.381.208.637.278.977-.017.313-.033.623-.05.934.093.344.29.42.377.607.108.242.055.438.137.701.098.305.343.828.513 1.115.086.148.271.18.42.279.195.148.354.42.556.563.289.215 1.184.586 1.532.703.763.242 1.811.066 2.509.369.169.9-.099 1.891-.28 2.662.018.262.029.523.05.791-.109.457-.255 1.035-.375 1.494 0 .299 0 .594 0 .889-.065.283-.202.91-.142 1.209.037.143.152.381.098.607-.016.059-.12.217-.142.275-.017.221-.033.436-.044.656-.076.223-.294.359-.37.561-.142.342-.071.674-.191 1.023-.032.094-.153.27-.185.379-.028.311-.061.619-.094.932-.044.164-.18.311-.229.465-.033.266-.066.531-.093.791-.094.113-.187.217-.278.324-.294 0-.437-.016-.654 0 .016.482.18.867.277 1.268 0 .229 0 .463 0 .689.023.084.121.287.143.385.108.469-.268 1.076-.093 1.723.196.73.349 1.572.687 2.246h-27.732c.344-.254.691-.713.807-1.082 0-.137 0-.275 0-.424.065-.258.245-.691.137-1.064-.076-.297-.366-.424-.513-.658-.284-.465-.354-.932-.552-1.494-.07-.189-.277-.414-.32-.605-.06-.209.349-1.439.413-1.729.11-.469.077-1.646 0-2.096.093-.809.186-1.617.278-2.43.082-.277.327-.354.469-.559.202-.309.202-.748.409-1.02.132-.178.376-.252.47-.469.158-.393.229-.832.321-1.211 0-.254 0-.502 0-.75.104-.365.354-.785.469-1.166.028-.219.061-.438.093-.654.158-.318.639-.424.834-.654.447-.529.572-1.283.977-1.865.234-.346.773-.355 1.112-.605.338-.254.464-.854.835-1.072.239-.139.479-.129.697-.275.169-.117.246-.354.37-.516.274-.344.993-.787 1.44-.932.371-.119.943.055 1.254.092.256.025.704-.121.977 0 .327.143.566.521.883.703.727.393 1.293.607 1.625 1.395.033.252.055.496.093.746.213.629.207.92.044 1.629-.115.52.104 1.133-.044 1.59-.186.566-.272 1.402-.415 2.004 0 .16 0 .313 0 .471-.125.467-.425.891-.561 1.396.016.215.033.436.049.654-.021.082-.158.25-.186.326-.044.295-.099.59-.137.883-.141.457-.251.992-.426 1.496-.113.338-.321.688-.37 1.123-.213.098-.741.141-.927.277-.301.205-.201.695-.605.834-.011.834.131.436.513.748.169.143.245.527.513.703-.006.684.146 1.119.327 1.58-.152.658.571 2.369.927 2.668.229.074.464.148.691.234.699.4.737.6 1.626.182.065 0 .132 0 .191 0 .07-.031.315-.215.37-.279.557-.695-.027-1.807.371-2.479.3-.496.818-1.006 1.02-1.578.016-.158.033-.316.049-.471.104-.35.272-.686.371-1.023.016-.191.027-.375.044-.561.125-.428.463-.809.611-1.215.026-.295.06-.592.086-.883.017-.047.121-.18.142-.232.012-.346.033-.689.044-1.031.077-.268.208-.635.278-.934-.016-.447-.026-.898-.044-1.348.208-.74.77-1.188.977-1.914-.033-.549-.065-1.088-.099-1.633.191-.916.099-2.219-.135-2.982-.012-.268-.034-.531-.05-.797-.099-.371-1.146-1.859-1.435-2.002-.349-.168-.742-.113-1.068-.33-.295-.193-.523-.613-.84-.793-.322-.18-.638-.16-.928-.371-.332-.25-.468-.605-.932-.75-1.08-.334-2.612-.264-3.713 0-.279.02-.558.033-.835.045-.431.121-.976.338-1.396.471-.181.027-.372.061-.557.094-.381.182-.791.463-1.156.648-.518.271-1.03.398-1.488.705-.234.154-.464.412-.693.561-.189.053-.376.119-.561.182-.328-.016-.365-.145-.557-.275-.088-.393-.039-1.107-.186-1.496-.104-.248-.344-.439-.42-.744 0-.17 0-.34 0-.514-.033-.104-.19-.244-.234-.32-.027-.195-.06-.383-.087-.564-.327-.793-.998-1.254-2.095-1.262-.169.141-.299.18-.371.416-.195.33.006 1.234-.092 1.682-.06.254-.168.588-.234.797-.147.49-.043.926-.229 1.352-.136.309-.382.727-.513 1.072-.189.518-.277 1.043-.419 1.584-.011.172-.028.344-.044.516-.027.072-.154.17-.186.236-.12.234-.022.494-.093.791-.07.287-.245.609-.321.889 0 .186 0 .365 0 .557-.077.311-.213.67-.283.932.011.311.031.621.049.934-.137.738-.207 1.516-.377 2.236-.098.418.017.738-.093 1.123-.147.512-.469.543-.687.889-.143.201-.225.533-.289.791 0 .326 0 .652 0 .977-.121.699-.011 1.811.143 2.475.08.361-.082.52 0 .889.031.166.173.416.146.605-.087.4-.333.752-.426 1.117-.098.377.088.709.137.932 0 .344 0 .682 0 1.025.016.064.131.225.143.287.031.4.06.807.092 1.213.152.41.779.965 1.385 1.357h-16.414c.285-.295.475-.662.492-1.129-.191-.191-.383-.586-.557-.746-.35-.322-.872-.357-1.342-.563-.251-.1-.37-.332-.561-.463-.143-.094-.301-.086-.421-.188-.507-.445-.119-.988-1.297-.979-.415.441-.884.408-1.446.697-.06.08-.113.158-.18.234-.245.158-.965.277-1.302.141-.416-.168-.847-.527-1.207-.795-.218-.213-.435-.432-.647-.648-.355-.131-.715-.252-1.07-.377-.195-.146-.332-.611-.556-.791-.021-.408-.104-.891.044-1.26.077-.201.344-.316.234-.752-.164-.623-.402-1.305-.562-1.865-.186-.682.289-1.238.186-1.77-.158-.793-.224-1.23-.038-2.053.082-.404-.077-.861.038-1.211.055-.152.25-.861.327-.979.098-.145.283-.172.42-.279.064-.057.037-.16.087-.23.36-.514.905-.758 1.075-1.5.393.051.408.547.604.797.044.014.087.027.138.041.146.158.119.318.233.516.151.271.528.43.785.607.153.105.288.346.47.416.228.018.463.033.697.051.332.092.709.316 1.019.418.171.057 1.604.225 1.762.191.169-.043.558-.117.742-.102 1.112.129 2.71-.043 3.768-.322.338-.088.682.084.928.139.224.051.551-.057.692-.043.376.035.801.158 1.16.184.209-.063.404-.127.605-.184.29-.072.938-.172 1.249-.096.065.01.251.082.378.051.299-.078.533-.316.832-.416.398-.154.847-.088 1.162-.287.213-.129.545-.535.748-.607.289-.105.567-.004.828-.09.677-.219 1.512-1.1 1.074-2.055-.208-.445-.682-.42-1.112-.654-.272-.141-.426-.365-.79-.467-.469-.131-.943-.1-1.212-.422-.048-.064-.037-.127.05-.234.125-.344.502-.27.791-.463.174-.117.266-.365.415-.514-.018-.201-.028-.396-.044-.602-.279-.266-.645-.455-.977-.654-.213-.553.272-1.289.094-1.584-.083-.225-.492-.514-.699-.617-.163-.764-.109-2.152-.463-2.75-.186-.303-1.036-.5-1.396-.602-.137 0-.277 0-.415 0-.718-.291-1.429-.756-2.137-1.025-.589-.225-1.326.027-2.039-.141-.278-.068-.639-.1-1.026-.09-.838.594-1.673-.182-2.697.043-1.043.23-1.522.23-2.271.748-.299.207-.534.813-.839 1.066-.393.33-.895.492-1.248.846-.208.199-.344.41-.514.65-.219.301-.615.465-.84.748-.381.502-.741.994-1.111 1.494-.061.076-.153.076-.235.141-.054.041-.654.682-.692.742-.234.332-.354.707-.605 1.027-.229.281-.55.572-.74.889-.115.172-.115.402-.23.561-.049.053-.196.08-.234.141-.186.246-.201.602-.327.877-.093.215-.333.404-.419.611-.186.461-.186.92-.415 1.309-.082.121-.268.279-.327.414-.169.371-.125 1.016-.229 1.451-.159.617-.371 1.258-.514 1.822 0 .152 0 .307 0 .463-.131.48-.098 1.166-.233 1.723-.056.225-.181.459-.235.654-.027.672-.054 1.34-.092 2.006-.039.148-.191.283-.229.422.016.152.033.309.044.465.031.625-.109 1.209.049 1.775.098.338.387.627.506.934.082.176.007.354.1.512.137.223.42.375.555.611.094.242.187.492.279.74.224.361.644.818.977 1.074.076.061.174.061.229.143.195.268.272.58.518.793.181.158.485.129.693.275.071.055.12.207.185.277.175.193.552.453.786.559.114.023.217.037.332.053.033.006.064.033.098.055h-11.342c0-.006.005-.006.005-.012.442-.305 1.272-.611 1.577-1.023.093-.127.082-.303.185-.418.132-.152.295-.203.37-.422.149-.229 0-.703-.042-.891-.071-.238-.018-.471-.143-.656-.201-.289-.633-.4-.927-.6-.19-.129-.332-.385-.512-.516-.17-.063-.339-.119-.509-.186-.332-.256-.288-.676-.839-.746-.082-.73-.725-1.266-1.39-1.396-.421.344-.982.441-1.445.744-.24.158-.383.477-.601.652-.108.084-.217.104-.326.186-.229.186-.213.49-.372.746-.06.1-.687.523-.79.568-.295.01-.584.025-.883.043-1.113.322-2.667.275-3.855 0-.42-.098-.698-.006-1.021-.141-.272-.115-.594-.398-.79-.613-.027-.059-.061-.119-.087-.184-.056 0-.093 0-.142 0-.241-.115-.562-.277-.742-.465-.131-.129-.169-.311-.283-.463-.115-.17-.35-.25-.512-.377-.127-.102-.159-.299-.273-.418-.076-.074-.202-.074-.284-.143-.195-.164-.35-.436-.556-.605-.05-.016-.093-.033-.137-.049-.109-.289-.213-.59-.321-.883-.093-.148-.312-.273-.377-.422-.262-.623.115-1.576-.049-2.283-.038-.186-.207-.697-.18-.84.026-.189.108-.627.044-.887-.187-.715-.295-.971-.098-1.725.021-.127.037-.252.054-.373.397-.822 1.009-1.318 1.254-2.338.12-.541-.272-.727-.37-1.02-.094-.25-.055-.756-.1-.988-.098-.475.24-.494.42-.697.187-.201.158-.57.279-.84.119-.262.365-.469.506-.695.066-.234.127-.465.188-.705.092-.199.32-.289.425-.457.125-.225.081-.514.185-.752.311-.742.943-1.463 1.484-2.006.146-.156.32-.455.512-.553.474-.254 1.139-.121 1.669-.332.212-.086.408-.41.604-.514.262-.137.458-.137.698-.277.332-.203.726-.619 1.112-.748.773 0 1.543 0 2.324 0 .103.027.32.115.418.143.214.049.365-.014.514.086.567.279 1.193 2.039 1.668 2.611.469.572 2.083.535 2.973.471.185.059.37.125.556.188 1.03.248 2.351-.381 2.694-.844.103-.133.064-.33.135-.512.127-.289.453-.863.377-1.303-.152-.883-1.26-1.789-1.902-2.236-.197-.137-.289-.402-.513-.512-.393-.213-.655-.197-1.162-.33-.158-.041-.338-.184-.469-.232-.174-.076-1.521-.113-1.626-.051-.255 0-.528 0-.784 0-.076-.094-.158-.184-.234-.275-.186-.129-.441-.309-.649-.377-.714-.24-1.75-.277-2.645-.277-.354 0-.715 0-1.069 0-1.569.447-3.173.889-4.41 1.682-.79.506-1.424 1.275-2.089 1.912-.104.092-.268.092-.37.184-.208.166-.312.385-.47.604-.202.188-.404.377-.6.559-.19.26-.223.631-.42.889-.207.268-.545.477-.742.748-.109.152-.125.359-.234.512s-.311.164-.469.279c0 0-.736.932-.736.934-.348.664-.441 1.436-.795 2.098-.104.113-.208.217-.323.328-.124.205-.124.424-.233.654-.055.119-.219.225-.279.326-.18.32-.151.684-.271 1.07-.082.266-.268.506-.377.701-.18.322-.104.742-.234 1.119-.071.232-.245.449-.322.654-.162.422-.113.918-.276 1.348-.101.25-.202.547-.312.854v-21.366c.011.012.016.033.033.039.178.129.436.09.648.186.3.146.322.58.976.426.278-.078.556-.16.835-.23.207-.176.213-.408.513-.518.071-.582.142-1.32.278-1.908.129-.578-.229-.977-.044-1.5.387-1.109.991-2.115 1.39-3.166.099-.264-.016-.547.093-.848.104-.104.219-.219.327-.322.027-.234.061-.469.088-.697.146-.201.278-.406.42-.607-.099-.396.19-.488.283-.795.012-.283.027-.561.044-.836.071-.223.306-.34.414-.516.065-.186.125-.371.185-.563.398-.066.971 0 1.255.191.077.076.157.152.234.234.262.109.741.121.976.182.563.152 1.451.064 1.953-.045.773-.17 2.05-.006 2.737.137.426.092.507-.107.878.098.049.137.163.371.189.465.1.305-.205.729-.283.926-.044.338-.086.66-.136.984-.087.301-.272.676-.371 1.027-.18.672.022 1.32-.321 1.773-.076.104-.19.182-.327.098-.268-.008-.446.006-.604.09.032.451.223.729.326 1.072.011.158.026.316.044.469.108.326.338.725.47 1.023.027.203.06.41.092.609.119.346.42.602.6.879.076.225.158.439.229.656.338.496 1.281.807 1.718 1.262 1.065-.041 2.274-1.498 2.558-2.375.114-.342-.027-.742.098-1.123.098-.305.377-.787.464-1.123-.017-.107-.032-.213-.049-.322.017-.516.032-1.027.049-1.543.279-1.232.235-2.719.601-3.914.272-.072.632-.219.888-.283.4.047.797.092 1.206.143 1.298-.174 2.857-.395 3.158-1.59.108-.445-.187-.74-.279-1.023-.213-.633-.431-.99-.932-1.303-.213-.064-.432-.127-.644-.189-.213-.129-.355-.428-.611-.516-.371-.01-.741-.031-1.112-.043-.158-.041-.256-.18-.375-.232-.279-.045-.558-.096-.835-.143-.187-.083-.354-.307-.552-.418-.098-.488-.005-1.082.088-1.54 0-.426 0-.84 0-1.26.021-.099.114-.383.141-.508 0-.236 0-.471 0-.703.066-.207.301-.408.372-.61.049-.589.092-1.179.142-1.771.006-.976-1.168-2.49-.469-3.41.186-.359.621-.311 1.024-.464.442-.163 1.036-.492 1.249-.883.033-.169.066-.341.099-.518.321-1.086-.453-1.751-.977-2.282-.125-.143-.251-.281-.371-.42-.441-.231-1.122-.281-1.624-.416-.502-.139-1.266.105-1.675-.14-.376-.025-.845-.527-1.069-.748-.305.052-.435.232-.648.374-.016.014-.033.03-.049.044-.169-.284-.327-.663-.644-.794-.158-.023-.316-.063-.469-.09-.338-.18-.315-.295-.928-.283-.223.169-.687.457-.932.559-.175.08-.321.016-.464.09-.201.123-.364.42-.557.519-.162.087-.354.008-.463.139-.043.139-.092.278-.137.419-.344.652-.572 1.497-.976 2.098-.218.326-.655.654-.883.981-.12.163-.12.387-.235.562-.35.535-.785 1.079-1.111 1.634-.147.241-.033.589-.143.886-.104.27-.633.872-.785 1.164-.114.201.065.416-.055.607-.158.257-.562.438-.742.698-.037.065-.311.534-.327.556 0 .133 0 .249 0 .377-.064.142-.331.222-.408.376-.087.161-.056.317-.142.467-.19.297-.486.597-.654.933-.061.259-.125.524-.181.793-.175.47-.491.873-.796 1.216-.349-.033-.342-.188-.551-.283-.311-.046-.621-.095-.932-.142-.109.096-.219.19-.322.28-.021.542.055 1.055.277 1.494.201.401.629.698.421 1.399-.114.371-.354.746-.519 1.068-.044.221-.087.441-.137.654-.08.225-.289.523-.375.746-.012.127-.022.256-.045.377-.087.195-.332.439-.419.648 0 .209 0 .41 0 .605-.056.178-.212.48-.321.66-.225.355-.764.535-1.053.867v-26.256c.037.172.076.338.169.474.136.197.572.519.79.611.203.085.438.065.605.186.344.006.338-.081.415-.327.153.021.332.087.468 0 .438-.163.377-.684.558-1.12.044-.102.185-.178.234-.278.075-.211.016-.442.136-.608.066-.026.119-.061.186-.094.072-.086.061-.244.143-.326.075-.083.229-.075.32-.142.082-.106.152-.213.234-.321.044-.017.093-.033.137-.05.022-.076.038-.158.045-.231.113-.199.348-.377.469-.559.032-.094.06-.188.092-.282.109-.098.219-.187.326-.282.306-.426.568-.837.879-1.251.104-.143.3-.208.42-.333.283.04.654.183.791.374.064.083.021.244.092.324.066.084.263.054.328.144.064.098.049.26.136.325.093.019.187.032.284.047.142.1.195.34.365.417.251.125.523.021.791.138.212.098.287.391.463.521.094.023.186.065.283.087.076.096.033.278.088.376.294.461 1.123 1.173 1.668 1.347.463.153 1.167-.163 1.396-.322.158-.113.256-.358.463-.425.142.018.284.042.42.05.35-.071.709-.087 1.118-.181 1.178-.289 2.519-.615 3.621-.932.186-.02.376-.033.556-.052.158-.058.35-.26.512-.325.11-.017.22-.032.323-.047.087-.067.07-.25.141-.324.066-.076.202-.087.283-.142.383-.288.617-.954.693-1.538.599-.163 1.211-.56 1.718-.84.152-.048.311-.092.463-.138.18-.118.207-.438.372-.564.157-.05.31-.088.463-.138.132-.086.943-1.146 1.02-1.309.142-.255.05-.572.147-.885.469-1.644-.338-3.484-1.024-4.569-.132-.21-.421-.273-.563-.47-1.089-1.567-3.015-2.38-4.59-3.457-.53-.356-1.228-.422-1.768-.787-.119-.08-.125-.29-.229-.377-.146-.111-.37-.111-.507-.227-.523-.434-1.041-.858-1.581-1.262-.126-.132-.25-.249-.376-.377-.333-.191-.611-.311-.883-.556-.033-.08-.061-.15-.094-.237-.191-.204-.539-.376-.697-.603-.044-.12-.088-.251-.137-.379-.131-.188-.42-.303-.557-.505-.169-.251-.25-.528-.419-.746-.165-.221-.12-.519-.235-.796-.218-.547-.801-1.223-.556-2.187.103-.41.371-.709.507-1.035.038-.171.066-.343.098-.509.021-.052.519-.894.557-.938.088-.086.229-.108.328-.18.375-.294.773-.706 1.248-.888.273-.11.578-.044.791-.093.125-.029.277-.159.376-.191.463-.147.817-.063 1.304-.181.354-.087 1.87-.474 2.317-.332.413.136.774.475 1.161.653-.006.338-.164.514-.094.841.246 1.15.716 1.864 1.577 2.38.251.145.687.047.889.234.087.155-.028.441.043.655.109.335.388.407.649.602.334-.026.572-.234.742-.42.224.033.348.147.463.281.191 0 .371 0 .562 0 .071-.033.087-.213.142-.281.115-.144.344-.169.459-.321.365.011.397.143.6.229.321.138.752.119 1.117.188.803-.756 1.293-1.391 1.068-2.897 0-.432 0-.867 0-1.304-.043-.143-.233-.229-.271-.368-.126-.417.212-.886.087-1.404-.055-.224-.224-.35-.272-.513 0-.126 0-.245 0-.37-.039-.093-.109-.174-.186-.26h104.75c-.131.747-.201 1.541-.355 2.17-.108.467.094.849 0 1.262-.075.34-.305.622-.419.928-.142.394-.104.692-.229 1.124-.093.311-.316.651-.42.981-.187.597-.345 1.265-.513 1.864-.055.197.021.426.093.513-.033.363-.268.342-.371.6-.152.404-.077.876-.229 1.309-.049.126-.195.246-.234.377-.016.278-.027.561-.043.84-.322 1.133-.639 2.345-.933 3.591-.109.455-.099.901-.185 1.306 0 .234 0 .47 0 .697-.1.273-.338.696-.416.984-.093.309.072.542-.049.887-.104.297-.327.654-.42.979-.092.325.055.695 0 .98-.021.13-.147.298-.185.415 0 .161 0 .314 0 .473-.098.42-.213 1.243-.415 1.584.006.472-.146.344-.42.51-.185.283-.076.714-.185 1.069-.061.195-.208.578-.328.757-.087.132-.327.298-.364.462-.088.291.605 1.049.692 1.306.125.395-.055.682.049.983.092.298.108 1.063.038 1.347-.016.093-.087.355-.038.516.098.376.294 1.287.507 1.587.108.093.217.19.327.278.093.137.093.289.185.419.203.301 1.168.988 1.762.84.207-.049.441-.206.605-.279.251-.102.507-.173.649-.376.36-.497.245-1.247.42-1.962.032-.122.152-.459.142-.6-.038-.33-.268-.892-.142-1.404.185-.749.289-1.507.469-2.281.011-.328.022-.654.038-.981-.027-.098-.146-.23-.087-.42.022-.093.153-.254.185-.374.071-.25 0-.439.093-.65.06-.143.224-.29.279-.465.031-.188.064-.373.091-.567.05-.116.192-.274.236-.414.097-.349-.078-.763 0-1.071.021-.098.152-.242.179-.325 0-.204 0-.409 0-.609.06-.213.06-.505.142-.791.251-.879.699-1.877.883-2.755-.016-.171-.031-.34-.049-.512.203-.91.181-1.903.464-2.754.077-.223.307-.373.377-.556.011-.235.027-.469.049-.698.115-.327.349-.717.458-1.025.126-.365.061-.674.191-.986.114-.273.358-.683.458-.981.169-.485.288-.976.42-1.44.016-.19.033-.37.049-.562.093-.25.398-.46.508-.697.142-.309.119-.622.277-.933.088-.164.311-.338.37-.516.093-.231.044-.598.1-.838.103-.43.026-1.234-.045-1.589.012-.204.022-.4.045-.607.016-.306-.089-.429-.143-.605-.032-.327-.061-.648-.092-.982-.209-.484-.535-.942-.923-1.327h20.904zm-93.266 27.084c.104.156.339.225.464.366.181.207.109.505.376.706.137.104.313.143.415.273.206.285.35.565.556.845.175.237.486.396.693.604.141.153.278.306.42.464.463.336.976.45 1.538.703.054.021.157.163.228.186.285.087.688.037.929 0 .206-.032.97.137 1.166.186.262 0 .523 0 .785 0 .577.155 1.5.158 2.138.278.195-.027.398-.061.605-.09.43.046 1.101.168 1.625.046.371-.106.741-.218 1.112-.333.294-.011.589-.024.883-.043.317-.079.616-.239.927-.321.263-.033.529-.063.791-.095.469-.23.878-.625 1.304-.934.049-.041.065-.15.136-.191.12-.008.25-.027.37-.043.251-.085.557-.203.841-.325.288-.125.496-.457.785-.559.093 0 .186 0 .278 0 .108-.144.218-.275.327-.417.125-.051.25-.092.37-.147.263-.175.458-.487.649-.741.169-.229.42-.344.649-.514.212-.157.261-.396.419-.609.153-.202.497-.208.741-.327 0-.011 0-.032 0-.044.219-.117.208-.292.372-.419.169-.132.343-.115.469-.28.403-.533.534-1.27.927-1.82.163-.223.507-.354.654-.605.109-.205.087-.403.181-.604.152-.333.484-.671.555-1.072.055-.274-.075-1.139-.092-1.45-.006-.133.152-.409.19-.559.169-.73-.354-1.372-.698-1.637.017-.376.311-.518.229-.932-.114-.588-.267-1.071-.556-1.488-.109-.111-.213-.219-.322-.331 0-.203 0-.399 0-.606-.07-.203-.268-.353-.327-.606.251-.125.784-.695.927-.927.143-.229.147-.518.328-.703-.022-.377-.655-1.38-.928-1.495-.426-.174-1.02-.054-1.483-.182-.539-.156-1.831-1.039-2.606-.849-.169.052-.371.225-.507.287-.344.15-.415.215-.759.335-.136.044-.261.245-.402.292-.197.029-.567.063-.774.095-.098.039-.42.041-.529.071-.191.05-1.619-.381-1.767-.466.016-.123.027-.164.049-.238.633-.01 1.271-.032 1.902-.046.214.046.611.09.835 0 .3-.112.491-.449.791-.553.061-.287-.093-.61 0-.933.087-.3.524-.517.42-.984-.219-.93-1.085-1.126-2.001-1.353-.202 0-.398 0-.6 0-.182-.07-.334-.205-.605-.236-.447.299-1.517.141-2.088.327-.579.185-1.331.441-1.909.659-.257.06-.524.12-.786.183-.506.215-1.09.61-1.625.793-.387.132-1.03.214-1.438.469-.949.593-1.963 1.141-2.879 1.771-.198.131-.198.471-.372.607-.169.123-.387.109-.561.229 0 .033 0 .061 0 .096-.339.257-.688.488-.977.791-.039.127-.094.249-.137.376-.141.169-.529.142-.648.324-.354.534-.589 1.086-.927 1.634-.272.439-.698.828-.977 1.262-.381.584-.55 1.238-.84 1.915-.081.195-.305.454-.365.646.011.19.021.377.043.562-.075.199-.343.456-.419.651-.016.268-.033.535-.044.796-.017.05-.125.214-.142.282 0 .233 0 .471 0 .699-.577 1.906-.337 4.761.698 6.298zm-15.513 16.459c-.169-.091-.312-.043-.464-.135-.137-.088-.272-.306-.415-.377-.408-.195-.997-.311-1.438-.42-.174.017-.344.033-.513.05-.19-.05-.495-.143-.703-.191-.306-.016-.611-.026-.922-.043-.327-.09-.96-.257-1.445-.136-.393.086-.84.244-1.156.37-.245.017-.501.027-.741.047-.108.111-.224.218-.326.323-.109 0-.213 0-.329 0-.304.086-.589.278-.746.512-.027 0-.06 0-.088 0-.452-.702-1.401-1.804-2.094-2.239-.195-.061-.403-.117-.6-.182-.093-.069-.071-.189-.136-.284-.114-.154-.475-.341-.654-.415-.393-.166-.916.035-1.391-.102-.114-.021-.268-.152-.377-.18-.321 0-.648 0-.976 0-.12.19-.339.371-.408.607-.317.952.626 1.803.408 2.609-.132.491-.263 1.279-.371 1.815-.037.236.087.448 0 .752-.048.17-.179.361-.228.561 0 .291 0 .588 0 .886-.143.616-.143 1.399-.328 2.05-.044.154-.186.361-.229.508 0 .196 0 .382 0 .567-.016.055-.124.19-.142.233 0 .327 0 .652 0 .982-.114.406-.344.955-.234 1.49-.016.184-.027.375-.049.561.01.137.075.273.104.371.087.398-.137.779-.234 1.074-.071.207-.295.6-.186.789-.071.426-.601.461-.742.982-.113.379-.081 1.08 0 1.451.109.535-.038.998.082 1.486.148.553.426 1.051.563 1.635.075.314-.023.777-.044 1.023-.071.779.055 1.482.185 2.01.082.34-.114.857.044 1.123.033.41.345.52.513.787.458.717.84 1.441 1.717 1.727.284.092.655-.035.977.051.104.021.327.158.465.133.474-.084 1.363-.609 1.537-1.021.212-.51.005-1.139-.093-1.537-.07-.264.081-.33 0-.568-.077-.199-.278-.389-.333-.6.039-.252.065-.498.093-.748-.038-.178-.245-.457-.18-.701.026-.115.196-.191.137-.418-.022-.102-.153-.199-.186-.283 0-.105 0-.213 0-.33-.125-.514-.158-1.086-.323-1.578-.064-.178-.233-.348-.282-.518-.076-.283.12-.498.142-.701.021-.17-.109-.5-.043-.742.037-.174.141-.484.184-.654.04-.191-.07-.283-.092-.377.012-.32.027-.648.043-.971-.086-.332-.08-.758 0-1.123 0-.17 0-.344 0-.512.094-.096.188-.191.279-.281.158-.287.283-.631.42-.887.125-.244.061-.564.277-.703.273-.164.568-.191.834-.365.202-.141.295-.441.464-.614.225-.212.633-.285.792-.553.124-.213.354-1.707.135-2.056 0-.557-.033-1.035.24-1.303.131-.147.35-.203.458-.377.142-.229.212-.504.421-.654.206-.147.527-.196.648-.418.186-.334.108-.781.327-1.074.283-.792 2.022-.632 2.737-.328.043.049.098.092.136.138.224.036.437.069.655.097.081.032.201.191.277.233.175.063.344.126.513.186.42.254.89.671 1.39.843.263.085.492-.008.704-.049.382 0 .77 0 1.15 0 .666-.178 1.053-.625 1.21-1.31.217-.879-.584-1.763-1.02-2.004zm2.743-13.479c.268-.139.943-.687 1.112-.932.136-.199.12-.333.37-.418.06-.525-.196-1.243-.557-1.497-.135-.098-.271-.098-.371-.229-.174-.233-.294-.468-.604-.56-.153-.099-.334-.056-.563-.099-.965-.175-1.516.673-2.225.888-.076 0-.152 0-.234 0-.109.042-.289.214-.414.232-.143-.03-.279-.063-.42-.09-.164.041-.202.261-.322.325-.251.029-.496.065-.746.098-.082.033-.257.154-.371.183-.214.052-.295-.077-.557 0-.18.054-.398.183-.605.234-.517.131-.922.02-1.439.14-.648.154-1.402.176-1.995.139-.263 0-.523 0-.791 0-.267-.071-.595-.237-.839-.322-.182-.039-.366-.065-.553-.096-.223-.117-.484-.352-.74-.469-.219-.096-.394-.084-.611-.186-.126-.06-.267-.227-.415-.28-.163-.063-.25 0-.37-.093-.201-.158-.557-.66-.698-.885-.087-.141-.087-.299-.185-.422-.164-.189-.421-.403-.557-.607-.045-.152-.094-.313-.137-.464-.152-.3-.469-.428-.561-.793-.088-.35.118-.849.185-1.12 0-.215 0-.437 0-.652.038-.111.191-.205.234-.325.108-.354.011-.735.142-1.073.076-.082.152-.152.23-.231.113-.161.098-.319.185-.521.049-.104.186-.22.229-.316.065-.442.126-.878.191-1.314.038-.127.19-.219.229-.325 0-.128 0-.247 0-.374.109-.108.218-.212.322-.326.136-.21.142-.411.382-.516.043-.033.01-.014.086-.047.584 1.086 1.445 1.29 2.694 1.68.339.109.682-.113 1.025 0 .19.077.315.23.463.328.425.283 1.005.572 1.528.703.425.013.84.027 1.254.046.523.124 1.221.112 1.766-.046.132-.033.272-.202.376-.234.322.032.649.065.972.092.114-.026.375-.108.512-.138.294-.069.769.089.977.046.196-.043.371-.273.557-.327.447-.133.823.125 1.211 0 .146-.049.314-.218.463-.281.311-.127.6-.111.928-.234.189-.063.402-.216.599-.281.284-.084.485-.034.747-.136.54-.207 1.118-.521 1.668-.698.301-.049.59-.092.884-.142.224-.087.469-.322.698-.417.283-.122.577-.041.884-.145.228-.077.452-.262.697-.327.245-.011.495-.021.742-.043.076-.074.152-.158.233-.235.328-.216.807-.226 1.064-.513.017 0 .026 0 .049 0 .206-.277.545-1.166.648-1.54.11-.39.021-.657.142-1.022.077-.24.312-.82.186-1.219-.06-.172-.228-.248-.327-.367-.076-.102.011-.252-.043-.375-.094-.176-.36-.166-.514-.283-.086-.068-.07-.186-.141-.28-.098-.125-.333-.175-.464-.275-.109-.123-.218-.248-.328-.376-.206-.135-.55-.096-.741-.238-.393-.157-.37-.687-.604-1.017-.257-.376-.654-.438-.971-.706-.191-.152-.158-.364-.272-.603-.143-.262-.513-.454-.748-.608-.037-.417-.093-.735-.283-1.074-.343-.082-.713-.24-1.068-.322-.502-.125-1.178.224-1.669 0-.142-.139-.283-.283-.42-.424-.136-.029-.277-.06-.414-.088-.032-.049-.065-.099-.099-.145-.527-.274-1.574-.244-2.181-.421-.3-.087-.47.138-.648.185-.404.021-.808.037-1.211.051-.169.041-.37.09-.643.09-.143-.104-.279-.212-.421-.325-.131-.181-.113-.416-.235-.603-.223-.37-.741-.609-1.346-.609-.294.191-.735.075-1.069.231-.485.235-.807.559-1.205.796-.158.09-.316.086-.463.185-.208.14-.36.429-.563.565-.151.096-.36.082-.506.184-.143.17-.278.346-.42.509-.317.219-.66.298-.972.518-.277.187-.436.551-.703.751-.256.19-.507.278-.785.46-.437.29-.89.794-1.21 1.211-.061.082-.153.076-.23.142-.211.163-.565.583-.746.794-.327.415-.627.983-.84 1.488-.037.221-.086.444-.136.657-.093.12-.289.128-.371.281-.262.512-.366 1.251-.649 1.726-.19.315-.469.616-.649.933-.087.311-.189.621-.283.929-.054.14-.218.259-.271.377-.192.394-.197.728-.377 1.163-.06.164-.225.41-.273.563-.163.488-.06.992-.239 1.445-.075.213-.295.463-.365.703-.126.426-.027.774-.142 1.21-.044.172-.201.415-.229.564.028.2.06.401.093.6-.087.396-.142 1.287 0 1.77.071.268.295.497.415.709.093.147.06.296.136.458.083.191.272.355.376.516.158.254.12.622.279.843.06.082.151.076.234.136.186.143.79.788.928.981.156.222.174.513.32.748.186.28.551.395.747.654.12.161.18.409.322.56.125.127.332.165.463.277.099.111.191.215.278.33.19.108.338.054.563.139.189.074.326.254.556.33.19.01.371.023.562.04.108.041.294.184.415.238.194.079.375.046.555.139.142.067.263.259.415.325.131.054.272.013.377.092.146.111.31.268.512.327.305.099.692.124.928.188.311 0 .621 0 .926 0 1.217.28 2.95.15 4.041-.095.218 0 .437 0 .648 0 1.54-.397 3.133-.775 4.414-1.451zm20.153 15.346c.263-.873-.271-1.436-.697-1.776-.061-.04-.142-.026-.186-.091-.075-.113-.021-.264-.093-.364-.206-.333-.632-.234-.932-.471-.147-.124-.295-.32-.459-.417-.32-.191-2.033-.544-2.464-.427-.087.022-.284.191-.376.191-.12 0-.366-.114-.459-.144-.163-.039-.419.029-.512.046-.534.119-1.042.021-1.391-.137.076-.441.437-.807.556-1.215 0-.197 0-.405 0-.604.066-.271.213-.548.279-.793.011-.282.032-.563.043-.847.07-.288.256-1.265.055-1.581-.055-.293-.104-.092-.19-.231 0-.154 0-.312 0-.469-.049-.204-.071-.717-.187-.932-.108-.199-.426-.287-.556-.467-.109-.146-.093-.304-.191-.467-.207-.362-1.75-1.065-2.503-.886-.686.152-1.242.363-2.045.42-.076.409-.223.852-.326 1.304-.072.332.157.61.093.845-.066.245-.376.573-.458.834-.147.431-.012.867-.143 1.306-.06.205-.267.333-.326.516-.154.45-.033.998-.044 1.448-.005.193-.339.494-.42.651-.115.224 0 .458-.093.748-.082.244-.263.559-.327.834-.583.101-.704-.35-1.113-.508-1.171-.475-2.835-.49-4.089-.093-.158.043-.339.011-.463.093-.148.05-.181.074-.234.229-.039.048-.012.013-.045.098.153.169.311.338.47.513.283.196.681.376.878.654.151.224.218.437.37.646.142.128.278.254.421.373.07.117-.017.283.043.426 0 0 .457.502.463.506.061.045.645.421.655.426.354.139.688.082.976.278.152.167.306.343.463.519.021.445-.168.725-.277 1.16-.016.295-.033.591-.049.884-.072.181-.376.36-.371.611 0 .185.239.37.19.605-.055.229-.224.556-.284.794.018.4.033.809.045 1.213-.403 1.412-.403 2.978-.785 4.378.033.344.06.693.093 1.033-.06.227-.212.568-.285.836 0 .313 0 .625 0 .934-.049.148-.157.25-.184.469-.011.014-.028.027-.039.049-.187.006-.452.027-.562-.049-.032 0-.06 0-.092 0 0 .412.125.676.185.979.05.26-.163.303-.093.564.049.17.267.352.322.508.12.363-.033 1.852-.088 2.143-.06.297.038.668.088.887.049.361.092.717.142 1.076.126.398.371.775.513 1.117.119.293.142.578.371.748.32.246 1.444 1.07 2.045.938.163-.043.326-.176.463-.24.283-.115.584-.18.742-.42.212-.314.643-2.076.506-2.703-.08-.404-.283-1.479-.136-2.004.056-.195.234-.418.278-.609.08-.326-.24-.49-.143-.84.077-.248.294-.621.377-.836.016-.232.033-.467.044-.703.026-.107.114-.32.142-.418 0-.234 0-.469 0-.697.081-.383.12-.857.043-1.357-.011-.086-.093-.307-.043-.465.038-.111.196-.256.234-.375 0-.182 0-.373 0-.563.104-.311.027-.729.137-1.115.026-.102.157-.275.186-.371.082-.264-.082-.551-.093-.701-.022-.305.168-.713.229-.932.07-.246-.104-.383 0-.654.049-.049.098-.097.142-.14.016-.19.032-.373.049-.562.038-.134.186-.324.229-.467.017-.168.038-.344.044-.512.065-.212.266-.393.326-.604 0-.235 0-.467 0-.702.055-.193.219-.414.278-.607.169-.494.201-1.156.42-1.587.093-.093.18-.183.284-.276.283-.008.512-.204.735-.141.132.035.388.193.513.234.311 0 .622 0 .927 0 .327.09.649.271 1.069.09.212-.087.508-.464.79-.42.055.011.192.131.234.141.459-.016.927-.034 1.391-.045.322.084 1.331.387 1.815.234.039-.014.148-.129.182-.139.152-.016.311-.033.463-.051.099-.037.18-.195.283-.23.246-.011.496-.036.742-.049.349-.126.676-.667.79-1.025zm22.712.348c-.241-.973-.393-1.021-.977-1.59-.137-.13-.186-.396-.32-.515-.258-.093-.503-.186-.748-.278-.201-.147-.272-.529-.464-.7-.567-.505-1.304-.949-1.952-1.354-.54-.33-1.642-.279-2.273-.514-.229-.087-.225-.261-.377-.419-.092-.097-.665-.465-.785-.514-.556-.087-1.112-.186-1.674-.283-.393-.136-.812-.475-1.205-.6-.604-.202-2.443.159-2.786.419-.153.119-.148.415-.278.558-.104.108-.3.151-.376.28-.027.175-.06.344-.088.516-.103.251-.327.33-.376.698-.044 0-.093 0-.137 0-.201.411-.539.679-.79 1.024-.546.764-1.054 1.622-1.396 2.568 0 .234 0 .469 0 .703-.06.184-.306.42-.37.602 0 .127 0 .249 0 .375-.088.28-.245.673-.327 1.027-.011.42-.026.838-.038 1.258-.049.217-.138.781-.049 1.071.027.095.158.198.185.281.093.271-.026.528.093.746.093.153.366.263.507.376.147.104.394.489.469.649.104.216-.07.375 0 .606.055.186.349.627.508.746.077.055.181.027.235.094.124.146.168.398.32.512 1.222.885 2.988 1.145 4.231 2.006.12.174.251.338.372.514.256.262.527.387.833.611.169.113.158.342.278.51.082.111.262.111.377.184.916.543-.339 2.096-.563 2.428-.224.34-.305.734-.551 1.027-.196.219-.551.305-.796.465-.229.156-.458.424-.698.566-.218.072-.43.148-.649.223-.064.066-.12.133-.18.191-.098 0-.19 0-.282 0-.41.105-.917.141-1.489.141-.278 0-.557 0-.828 0-.202.053-.312.143-.611.143.039-.697.692-.984.469-1.963-.06-.25-.213-.436-.282-.607-.012-.15-.028-.309-.05-.463-.087-.193-.333-.266-.465-.418-.168-.223-.364-.566-.55-.75-.272-.254-.698-.313-1.021-.516-.262-.152-.534-.418-.839-.514-.322-.088-.529-.01-.84 0-.104.082-.213.16-.322.238-.294.41-.354 1.094-.932 1.211-.094.051-.426-.092-.649-.092-.065.072-.114.105-.229.139-.022.436-.224.637-.327.979-.147.486-.119.934-.279 1.447-.141.473-.375 1.117-.512 1.588-.071.254.076.516.092.654-.026.277-.06.555-.092.834.021.07.17.18.186.234.098.254-.115.395 0 .602.049.102.212.115.283.191.764.916 1.598.766 2.967.467.715-.16 1.271.162 1.718.277.327.039.654.066.976.1.404.133.535.582.835.793.201.127.475.105.653.234.082.1.154.215.236.322.25.266.795.678 1.16.791.152-.016.306-.031.457-.043.241.043 1.146.209 1.49.09.344-.111.502-.514.834-.648.316-.051.621-.096.932-.139.246-.104.486-.379.748-.469.135-.02.271-.033.414-.047.169-.059 1.363-.688 1.439-.799.093-.131.049-.311.136-.463.143-.104.278-.219.42-.326.344-.494.578-1.021.927-1.492.29-.385.803-.559.977-1.072.143-.406.033-1.057-.044-1.402-.136-.609-.027-1.133-.233-1.676-.06-.164-.257-.234-.322-.379-.017-.182-.033-.365-.044-.563-.071-.186-.276-.305-.382-.457-.092-.158-.037-.336-.136-.518-.104-.094-.219-.184-.322-.275-.087-.172.076-.199 0-.379-.065-.041-.125-.09-.185-.137-.087-.131-.146-.398-.186-.563-.153-.645.18-1.275-.093-1.723-.277-.449-.716-.668-1.075-1.027-.294-.293-.484-.68-.833-.934-.18-.135-.437-.139-.595-.279-.082-.061-.076-.213-.143-.279-.223-.193-.626-.18-.888-.326-.164-.09-.306-.323-.464-.42-.186-.114-.381-.093-.6-.19-.332-.131-.704-.316-1.026-.508-.294-.181-.561-.47-.833-.654-.125-.044-.246-.093-.371-.139-.186-.145-.267-.423-.464-.562.011-1.087.235-2.043.464-2.893.119-.453-.115-1.187 0-1.544.147-.469.595-.813.834-1.202.186-.302.229-.685.463-.938.191-.212.628-.234.885-.372.278-.153.779-.646 1.019-.89.147 0 .278 0 .421 0 .338.245.092.851.185 1.262.071.307.218.832.416 1.028.174.108.343.213.511.327.099.131.05.333.187.42.179.109.393.068.562.186.151.17.305.339.463.508.142.101.328.089.464.195.103.076.151.26.229.371.218.203.437.403.653.605.093.125.152.376.278.462.252.19.611.127.928.235.075.022.201.164.277.191.578.19 1.211.093 1.767.044.147-.018.393.095.601.043 1.434-.332 2.355-.365 2.737-1.771.058-.179-.018-.494-.04-.598zm25.677-38.181c-.065-.128-.245-.278-.322-.415-.13-.223-.07-.482-.19-.74-.18-.41-1.051-1.293-1.434-1.5-.268-.147-.502-.077-.84-.186-.207-.06-.475-.284-.648-.417-.158.005-.234.019-.321.092-.214.14-.131.243-.235.511-.049.13-.234.262-.283.37-.082.229.109.518.146.657-.016.417-.037.837-.049 1.257-.027.096-.158.243-.191.327.022.142.033.281.05.42-.054.278-.295.655-.37.933-.033.298-.065.597-.094.886-.107.362-.354.784-.463 1.123-.121.384-.038 1.001-.186 1.35-.027.061-.153.175-.186.235-.152.295-.283.709-.37 1.027-.017.248-.032.499-.05.745-.032.103-.197.215-.229.329 0 .216 0 .431 0 .651-.224.786-.66 1.56-.889 2.377-.017.312-.022.623-.043.936-.104.407-.121.992-.279 1.395-.076.201-.3.359-.371.562-.016.141-.033.282-.043.419-.065.121-.872 1.104-.976 1.17-.252.145-.442.114-.747.232-.022.011-.628.708-.649.747-.251.463.272.84.05 1.303-.169.172-.344.343-.514.512-.044.156-.093.317-.137.47-.113.163-.403.196-.512.373-.125.202-.056.483-.186.652-.125.163-.437.161-.605.281-.092.105-.186.215-.278.328-.349.237-.703.345-1.117.514-.115.049-.267.229-.365.281-.234.011-.47.033-.704.045-.533.17-1.733.235-2.415.094-.229 0-.458 0-.692 0-.294-.073-.578-.244-.84-.33-.295-.099-.562-.047-.791-.186-.219-.138-.376-.373-.648-.466-.027-.354-.158-.753-.087-1.214.016-.138.098-.443.043-.65-.061-.271-.252-.759-.136-1.121.011-.041.131-.15.136-.186 0-.139 0-.281 0-.423.087-.243.365-.507.47-.84.08-.278-.148-.698-.049-.976.037-.12.223-.336.271-.469.163-.377.125-.756.283-1.162.028-.082.153-.204.187-.277.065-.426.125-.846.185-1.269.119-.357.344-.87.464-1.257 0-.136 0-.277 0-.417.065-.186.268-.355.327-.564.016-.199.027-.401.043-.604.076-.077.153-.156.234-.229.033-.208.066-.409.093-.61.125-.254.464-.366.606-.742.016-.142.026-.281.043-.423.12-.403.316-.911.42-1.353.104-.444-.191-1.307 0-1.633.038-.403.665-1.102.834-1.538.017-.204.033-.409.049-.61.365-1.644-1.216-2.252-2.229-2.705-.229-.101-.502-.101-.698-.234-.868-.006-.949 1.216-1.111 1.921 0 .212 0 .431 0 .646-.127.482-.481 1.006-.744 1.404-.06.06-.124.116-.189.18-.18.447-.185.861-.371 1.311-.382.925-.78 1.78-1.112 2.798-.049.158-.229.248-.283.376-.108.26.026.561-.087.788-.082.164-.312.347-.377.516 0 .087 0 .186 0 .281-.076.281-.235.599-.322.837-.016.128-.032.253-.043.373-.082.169-.305.385-.375.56-.019.157-.029.313-.045.472-.049.174-.186.414-.234.553 0 .126 0 .254 0 .374-.049.19-.219.398-.272.564-.017.216-.039.433-.055.653-.017.086-.119.281-.137.371.018.166.033.341.044.51-.104.486-.387 1.2-.224 1.917.18.823.229 1.672.414 2.517.017.341.033.688.044 1.025.049.05.094.095.143.142 0 .185 0 .376 0 .563.125.451.431.947.6 1.346.064.144.021.245.098.378.263.249.523.497.785.742.126.142.25.282.371.417.523.313 1.244.303 1.768.613.349.198.681.619 1.067.788.355.158.759.245 1.113.327.234.016.468.032.698.048.495.146.921.345 1.438.465.257.066.813.016.928 0 .501 0 .992 0 1.488 0 .463-.099 1.052-.213 1.489-.322.528-.143.981.041 1.482-.095.382-.102.878-.232 1.211-.423.055-.074.119-.15.185-.229.165-.11.458-.109.557-.279 0-.059 0-.124 0-.187.093-.171.327-.265.415-.469.061-.128.021-.26.098-.372.098-.16.359-.246.414-.466.027-.084.012-.746-.044-.888-.021-.056-.168-.169-.185-.235-.022-.261-.032-.528-.05-.793-.043-.096-.195-.145-.233-.276-.131-.453.185-.653.233-.938-.032-.261-.06-.528-.093-.795.654.041.747.487 1.211.659.49.188 2.133.098 2.503-.137.267-.172.3-.419.463-.706.11-.188.421-.352.513-.559.018-.137.033-.277.044-.415.044-.107.196-.223.234-.329.022-.221.033-.438.05-.654.017-.09.114-.287.142-.371-.022-.252-.033-.502-.05-.748.05-.211.174-.525.23-.746.086-.33-.012-.57.093-.837.146-.374.475-.655.599-1.027.158-.447.186-.96.284-1.401 0-.173 0-.336 0-.514.131-.461.388-.962.513-1.398.157-.562-.043-1.215.135-1.729.071-.186.307-.364.372-.559 0-.437 0-.871 0-1.301.142-.504.731-1.806.653-2.244-.154-.87.461-2.011.041-2.851zm-110.623 44.087c.147.414.894.867 1.582.695.201-.052.497-.197.79-.139.339.072.928.198 1.348.095.234-.054.664-.172 1.02-.095.349.072.784.092 1.16.049 0-.033 0-.061 0-.097.219-.253.176-1.703.279-2.188.19-.865.131-2.968-.093-3.731-.044-.158.044-.951 0-1.221.06-.322.126-.65.186-.971.147-.603.093-1.35 0-1.826-.071 0-.153 0-.229 0-.146.259-.311.507-.512.708-.039.033-.154.044-.191.087-.108.137-.049.403-.181.512-.239.198-.61.361-.79.612-.245.338-.245.921-.512 1.255-.109.138-.383.07-.508.189-.196.175-.143.644-.283.887-.131.24-.442.428-.601.651-.124.175-.158.388-.277.562-.108.142-.322.213-.47.324-.229.184-.419.555-.6.799-.273.354-.637.516-.791 1.021-.092.3.076.72-.049 1.068-.064.208-.353.547-.278.754z" fill="#ed1a3b"/></svg>